<svg width="125" height="125" viewBox="0 0 125 125" fill="none" xmlns="http://www.w3.org/2000/svg">
<circle cx="62.5" cy="62.5" r="62.5" fill="white"/>
<circle cx="36.7085" cy="75.5" r="1.5" fill="#D35800"/>
<circle cx="50.7085" cy="80.5" r="1.5" fill="#D35800"/>
<path d="M28.8153 77.2031C32.3911 77.8862 37.7086 80.0257 40.6393 82.3958C42.1277 82.3958 43.689 82.8145 45.1068 83.2334C46.6674 83.6945 48.147 84.8402 49.2369 86.0178C50.7812 87.6865 51.5759 89.7881 52.6379 91.7573C53.4354 93.236 54.3339 94.7533 55.4611 96.0076C56.6063 97.2819 58.0429 98.1801 59.5407 98.982C62.404 100.515 65.5125 101.525 68.6851 102.189C68.906 102.235 70.3021 102.39 69.259 102.565C67.208 102.91 64.8751 102.615 62.8526 102.325C59.4585 101.837 56.0027 101.044 52.8163 99.7537C48.6461 98.0653 45.107 95.0887 42.0277 91.8659C40.5349 90.3035 39.2787 88.6508 38.4599 86.6499C38.0646 85.684 38.1856 85.8739 37.9519 85.1026C37.9185 84.9925 37.9307 84.8505 37.7968 84.8622C37.6602 84.8741 37.5186 84.9544 37.3818 84.9785C36.0587 85.212 34.5693 85.0125 33.2613 84.8373L33.244 84.835C29.3415 84.3124 25.2595 82.4956 22.7307 79.3864C20.6012 76.7682 19.2324 73.1915 19.0195 69.8272C18.9976 69.481 19.0001 69.4341 19.0001 69.164C19.0001 69.0696 19.0039 69.3528 19.0078 69.4471C19.039 70.1959 19.1369 70.9538 19.3724 71.6692C19.9652 73.4706 21.0469 74.8998 22.8083 75.6946C24.677 76.5378 26.8239 76.8227 28.8153 77.2031Z" fill="#FB6800" stroke="#D35800" stroke-width="3" stroke-linecap="round"/>
<path d="M32.9111 68.5363C34.6991 68.3305 35.4686 68.3562 37.2642 68.3697C42.3765 68.408 47.6836 68.4053 52.6184 69.9387C57.0499 71.3158 60.6634 73.9197 63.7568 77.3098C64.9108 78.5744 65.9767 79.9423 67.0846 81.2496" stroke="#F5D03A" stroke-width="3" stroke-linecap="round"/>
<path d="M32.0029 68.7676C32.0029 66.5141 31.9464 64.2512 32.329 62.0173C33.1521 57.2108 35.6866 53.4762 39 49.9999C40.7484 48.1656 43.1435 45.9869 45.2075 44.532" stroke="#F5D03A" stroke-width="3" stroke-linecap="round"/>
<path d="M67.8267 81.5007C68.4207 77.8173 70.6825 74.2396 73.1384 71.5247C74.9925 69.475 77.1825 67.8938 79.7147 66.8123C80.7185 66.3836 81.6042 66.2275 82.6332 65.9854" stroke="#F5D03A" stroke-width="3" stroke-linecap="round"/>
<path d="M38 50.0001C35.9334 48.2288 33.7913 45.6573 32.9198 43.1021C32.0226 40.4714 31.7425 37.6114 32.7446 34.9561C34.0786 31.4214 37.0869 29.0805 40.3648 27.4271C43.6979 25.7458 47.6618 24.5741 51.427 24.8333C55.0178 25.0804 58.0311 26.7021 60.5544 29.2217C62.8015 31.4656 64.6087 34.4541 65.6579 37.4518" stroke="#F5D03A" stroke-width="3" stroke-linecap="round"/>
<path d="M82.8193 66.0958C88.4177 66.8955 95.0945 67.4232 100.051 64.1259C103.309 61.9583 105.152 58.0335 106.332 54.4306C107.447 51.0252 107.348 47.2464 105.757 43.9853C102.021 36.3259 92.8654 35.3057 85.343 35.622C81.3353 35.7905 77.5654 36.7069 73.8461 38.1808C73.0206 38.5079 72.0819 38.8475 71.3364 39.3445" stroke="#F5D03A" stroke-width="3" stroke-linecap="round"/>
<path d="M57.5879 27.0002C58.2987 26.2894 60.2 25.9038 61.0095 25.6964C65.9416 24.4326 71.2472 23.7204 76.341 24.1037C78.3076 24.2517 80.7089 24.7009 82.5192 25.6001C83.7949 26.2337 85.0546 27.413 85.932 28.5229C87.2574 30.1996 87.9493 32.1593 88.7761 34.0885" stroke="#F5D03A" stroke-width="3" stroke-linecap="round"/>
</svg>
