<svg width="233" height="50" viewBox="0 0 233 50" fill="none" xmlns="http://www.w3.org/2000/svg">
<mask id="path-1-outside-1_574_7" maskUnits="userSpaceOnUse" x="6" y="12" width="114" height="26" fill="black">
<rect fill="white" x="6" y="12" width="114" height="26"/>
<path d="M17.9 34.35C16.4667 34.35 15.0833 34.175 13.75 33.825C12.4333 33.4583 11.3583 32.9917 10.525 32.425L12.15 28.775C12.9333 29.275 13.8333 29.6917 14.85 30.025C15.8833 30.3417 16.9083 30.5 17.925 30.5C18.6083 30.5 19.1583 30.4417 19.575 30.325C19.9917 30.1917 20.2917 30.025 20.475 29.825C20.675 29.6083 20.775 29.3583 20.775 29.075C20.775 28.675 20.5917 28.3583 20.225 28.125C19.8583 27.8917 19.3833 27.7 18.8 27.55C18.2167 27.4 17.5667 27.25 16.85 27.1C16.15 26.95 15.4417 26.7583 14.725 26.525C14.025 26.2917 13.3833 25.9917 12.8 25.625C12.2167 25.2417 11.7417 24.75 11.375 24.15C11.0083 23.5333 10.825 22.7583 10.825 21.825C10.825 20.775 11.1083 19.825 11.675 18.975C12.2583 18.125 13.125 17.4417 14.275 16.925C15.425 16.4083 16.8583 16.15 18.575 16.15C19.725 16.15 20.85 16.2833 21.95 16.55C23.0667 16.8 24.0583 17.175 24.925 17.675L23.4 21.35C22.5667 20.9 21.7417 20.5667 20.925 20.35C20.1083 20.1167 19.3167 20 18.55 20C17.8667 20 17.3167 20.075 16.9 20.225C16.4833 20.3583 16.1833 20.5417 16 20.775C15.8167 21.0083 15.725 21.275 15.725 21.575C15.725 21.9583 15.9 22.2667 16.25 22.5C16.6167 22.7167 17.0917 22.9 17.675 23.05C18.275 23.1833 18.925 23.325 19.625 23.475C20.3417 23.625 21.05 23.8167 21.75 24.05C22.4667 24.2667 23.1167 24.5667 23.7 24.95C24.2833 25.3167 24.75 25.8083 25.1 26.425C25.4667 27.025 25.65 27.7833 25.65 28.7C25.65 29.7167 25.3583 30.6583 24.775 31.525C24.2083 32.375 23.35 33.0583 22.2 33.575C21.0667 34.0917 19.6333 34.35 17.9 34.35ZM35.9865 34V31.475L35.6615 30.85V26.2C35.6615 25.45 35.4282 24.875 34.9615 24.475C34.5115 24.0583 33.7865 23.85 32.7865 23.85C32.1365 23.85 31.4782 23.9583 30.8115 24.175C30.1449 24.375 29.5782 24.6583 29.1115 25.025L27.5115 21.8C28.2782 21.3 29.1949 20.9167 30.2615 20.65C31.3449 20.3667 32.4199 20.225 33.4865 20.225C35.6865 20.225 37.3865 20.7333 38.5865 21.75C39.8032 22.75 40.4115 24.325 40.4115 26.475V34H35.9865ZM31.9865 34.225C30.9032 34.225 29.9865 34.0417 29.2365 33.675C28.4865 33.3083 27.9115 32.8083 27.5115 32.175C27.1282 31.5417 26.9365 30.8333 26.9365 30.05C26.9365 29.2167 27.1449 28.5 27.5615 27.9C27.9949 27.2833 28.6532 26.8167 29.5365 26.5C30.4199 26.1667 31.5615 26 32.9615 26H36.1615V28.475H33.6115C32.8449 28.475 32.3032 28.6 31.9865 28.85C31.6865 29.1 31.5365 29.4333 31.5365 29.85C31.5365 30.2667 31.6949 30.6 32.0115 30.85C32.3282 31.1 32.7615 31.225 33.3115 31.225C33.8282 31.225 34.2949 31.1 34.7115 30.85C35.1449 30.5833 35.4615 30.1833 35.6615 29.65L36.3115 31.4C36.0615 32.3333 35.5699 33.0417 34.8365 33.525C34.1199 33.9917 33.1699 34.225 31.9865 34.225ZM51.9348 34.225C50.7181 34.225 49.7014 33.975 48.8848 33.475C48.0848 32.975 47.4848 32.2083 47.0848 31.175C46.6848 30.1417 46.4848 28.8167 46.4848 27.2C46.4848 25.6167 46.6931 24.3083 47.1098 23.275C47.5431 22.2417 48.1681 21.475 48.9848 20.975C49.8014 20.475 50.7848 20.225 51.9348 20.225C53.1681 20.225 54.2848 20.5083 55.2848 21.075C56.3014 21.6417 57.1014 22.45 57.6848 23.5C58.2848 24.5333 58.5848 25.7667 58.5848 27.2C58.5848 28.65 58.2848 29.9 57.6848 30.95C57.1014 31.9833 56.3014 32.7917 55.2848 33.375C54.2848 33.9417 53.1681 34.225 51.9348 34.225ZM43.4098 34V15.45H48.1598V22.725L47.9098 27.2L47.9348 31.675V34H43.4098ZM50.9348 30.45C51.4681 30.45 51.9431 30.325 52.3598 30.075C52.7931 29.825 53.1348 29.4583 53.3848 28.975C53.6514 28.475 53.7848 27.8833 53.7848 27.2C53.7848 26.5167 53.6514 25.9417 53.3848 25.475C53.1348 24.9917 52.7931 24.625 52.3598 24.375C51.9431 24.125 51.4681 24 50.9348 24C50.4014 24 49.9181 24.125 49.4848 24.375C49.0681 24.625 48.7264 24.9917 48.4598 25.475C48.2098 25.9417 48.0848 26.5167 48.0848 27.2C48.0848 27.8833 48.2098 28.475 48.4598 28.975C48.7264 29.4583 49.0681 29.825 49.4848 30.075C49.9181 30.325 50.4014 30.45 50.9348 30.45ZM67.5926 34.225C66.1092 34.225 64.7926 33.925 63.6426 33.325C62.4926 32.725 61.5842 31.9 60.9176 30.85C60.2676 29.7833 59.9426 28.5667 59.9426 27.2C59.9426 25.8333 60.2676 24.625 60.9176 23.575C61.5842 22.525 62.4926 21.7083 63.6426 21.125C64.7926 20.525 66.1092 20.225 67.5926 20.225C69.0759 20.225 70.3926 20.525 71.5426 21.125C72.7092 21.7083 73.6176 22.525 74.2676 23.575C74.9176 24.625 75.2426 25.8333 75.2426 27.2C75.2426 28.5667 74.9176 29.7833 74.2676 30.85C73.6176 31.9 72.7092 32.725 71.5426 33.325C70.3926 33.925 69.0759 34.225 67.5926 34.225ZM67.5926 30.45C68.1426 30.45 68.6259 30.325 69.0426 30.075C69.4759 29.825 69.8176 29.4583 70.0676 28.975C70.3176 28.475 70.4426 27.8833 70.4426 27.2C70.4426 26.5167 70.3176 25.9417 70.0676 25.475C69.8176 24.9917 69.4759 24.625 69.0426 24.375C68.6259 24.125 68.1426 24 67.5926 24C67.0592 24 66.5759 24.125 66.1426 24.375C65.7259 24.625 65.3842 24.9917 65.1176 25.475C64.8676 25.9417 64.7426 26.5167 64.7426 27.2C64.7426 27.8833 64.8676 28.475 65.1176 28.975C65.3842 29.4583 65.7259 29.825 66.1426 30.075C66.5759 30.325 67.0592 30.45 67.5926 30.45ZM77.443 34V20.45H81.968V24.4L81.293 23.275C81.693 22.2583 82.343 21.5 83.243 21C84.143 20.4833 85.2346 20.225 86.518 20.225V24.5C86.3013 24.4667 86.1096 24.45 85.943 24.45C85.793 24.4333 85.6263 24.425 85.443 24.425C84.4763 24.425 83.693 24.6917 83.093 25.225C82.493 25.7417 82.193 26.5917 82.193 27.775V34H77.443ZM95.4561 34.225C93.8561 34.225 92.4561 33.925 91.2561 33.325C90.0727 32.7083 89.1477 31.875 88.4811 30.825C87.8311 29.7583 87.5061 28.55 87.5061 27.2C87.5061 25.85 87.8227 24.65 88.4561 23.6C89.1061 22.5333 89.9977 21.7083 91.1311 21.125C92.2644 20.525 93.5394 20.225 94.9561 20.225C96.2894 20.225 97.5061 20.5 98.6061 21.05C99.7061 21.5833 100.581 22.375 101.231 23.425C101.881 24.475 102.206 25.75 102.206 27.25C102.206 27.4167 102.198 27.6083 102.181 27.825C102.164 28.0417 102.148 28.2417 102.131 28.425H91.4061V25.925H99.6061L97.8061 26.625C97.8227 26.0083 97.7061 25.475 97.4561 25.025C97.2227 24.575 96.8894 24.225 96.4561 23.975C96.0394 23.725 95.5477 23.6 94.9811 23.6C94.4144 23.6 93.9144 23.725 93.4811 23.975C93.0644 24.225 92.7394 24.5833 92.5061 25.05C92.2727 25.5 92.1561 26.0333 92.1561 26.65V27.375C92.1561 28.0417 92.2894 28.6167 92.5561 29.1C92.8394 29.5833 93.2394 29.9583 93.7561 30.225C94.2727 30.475 94.8894 30.6 95.6061 30.6C96.2727 30.6 96.8394 30.5083 97.3061 30.325C97.7894 30.125 98.2644 29.825 98.7311 29.425L101.231 32.025C100.581 32.7417 99.7811 33.2917 98.8311 33.675C97.8811 34.0417 96.7561 34.225 95.4561 34.225ZM109.321 34.225C108.171 34.225 107.046 34.0917 105.946 33.825C104.863 33.5583 103.988 33.225 103.321 32.825L104.746 29.575C105.379 29.9583 106.121 30.2667 106.971 30.5C107.821 30.7167 108.654 30.825 109.471 30.825C110.271 30.825 110.821 30.7417 111.121 30.575C111.438 30.4083 111.596 30.1833 111.596 29.9C111.596 29.6333 111.446 29.4417 111.146 29.325C110.863 29.1917 110.479 29.0917 109.996 29.025C109.529 28.9583 109.013 28.8833 108.446 28.8C107.879 28.7167 107.304 28.6083 106.721 28.475C106.154 28.325 105.629 28.1083 105.146 27.825C104.679 27.525 104.304 27.125 104.021 26.625C103.738 26.125 103.596 25.4917 103.596 24.725C103.596 23.8583 103.846 23.0917 104.346 22.425C104.863 21.7417 105.613 21.2083 106.596 20.825C107.579 20.425 108.779 20.225 110.196 20.225C111.146 20.225 112.104 20.325 113.071 20.525C114.054 20.7083 114.879 20.9917 115.546 21.375L114.121 24.6C113.454 24.2167 112.788 23.9583 112.121 23.825C111.454 23.675 110.821 23.6 110.221 23.6C109.421 23.6 108.854 23.6917 108.521 23.875C108.204 24.0583 108.046 24.2833 108.046 24.55C108.046 24.8167 108.188 25.025 108.471 25.175C108.754 25.3083 109.129 25.4167 109.596 25.5C110.079 25.5667 110.604 25.6417 111.171 25.725C111.738 25.7917 112.304 25.9 112.871 26.05C113.454 26.2 113.979 26.425 114.446 26.725C114.929 27.0083 115.313 27.4 115.596 27.9C115.879 28.3833 116.021 29.0083 116.021 29.775C116.021 30.6083 115.763 31.3583 115.246 32.025C114.746 32.6917 113.996 33.225 112.996 33.625C112.013 34.025 110.788 34.225 109.321 34.225Z"/>
</mask>
<path d="M17.9 34.35C16.4667 34.35 15.0833 34.175 13.75 33.825C12.4333 33.4583 11.3583 32.9917 10.525 32.425L12.15 28.775C12.9333 29.275 13.8333 29.6917 14.85 30.025C15.8833 30.3417 16.9083 30.5 17.925 30.5C18.6083 30.5 19.1583 30.4417 19.575 30.325C19.9917 30.1917 20.2917 30.025 20.475 29.825C20.675 29.6083 20.775 29.3583 20.775 29.075C20.775 28.675 20.5917 28.3583 20.225 28.125C19.8583 27.8917 19.3833 27.7 18.8 27.55C18.2167 27.4 17.5667 27.25 16.85 27.1C16.15 26.95 15.4417 26.7583 14.725 26.525C14.025 26.2917 13.3833 25.9917 12.8 25.625C12.2167 25.2417 11.7417 24.75 11.375 24.15C11.0083 23.5333 10.825 22.7583 10.825 21.825C10.825 20.775 11.1083 19.825 11.675 18.975C12.2583 18.125 13.125 17.4417 14.275 16.925C15.425 16.4083 16.8583 16.15 18.575 16.15C19.725 16.15 20.85 16.2833 21.95 16.55C23.0667 16.8 24.0583 17.175 24.925 17.675L23.4 21.35C22.5667 20.9 21.7417 20.5667 20.925 20.35C20.1083 20.1167 19.3167 20 18.55 20C17.8667 20 17.3167 20.075 16.9 20.225C16.4833 20.3583 16.1833 20.5417 16 20.775C15.8167 21.0083 15.725 21.275 15.725 21.575C15.725 21.9583 15.9 22.2667 16.25 22.5C16.6167 22.7167 17.0917 22.9 17.675 23.05C18.275 23.1833 18.925 23.325 19.625 23.475C20.3417 23.625 21.05 23.8167 21.75 24.05C22.4667 24.2667 23.1167 24.5667 23.7 24.95C24.2833 25.3167 24.75 25.8083 25.1 26.425C25.4667 27.025 25.65 27.7833 25.65 28.7C25.65 29.7167 25.3583 30.6583 24.775 31.525C24.2083 32.375 23.35 33.0583 22.2 33.575C21.0667 34.0917 19.6333 34.35 17.9 34.35ZM35.9865 34V31.475L35.6615 30.85V26.2C35.6615 25.45 35.4282 24.875 34.9615 24.475C34.5115 24.0583 33.7865 23.85 32.7865 23.85C32.1365 23.85 31.4782 23.9583 30.8115 24.175C30.1449 24.375 29.5782 24.6583 29.1115 25.025L27.5115 21.8C28.2782 21.3 29.1949 20.9167 30.2615 20.65C31.3449 20.3667 32.4199 20.225 33.4865 20.225C35.6865 20.225 37.3865 20.7333 38.5865 21.75C39.8032 22.75 40.4115 24.325 40.4115 26.475V34H35.9865ZM31.9865 34.225C30.9032 34.225 29.9865 34.0417 29.2365 33.675C28.4865 33.3083 27.9115 32.8083 27.5115 32.175C27.1282 31.5417 26.9365 30.8333 26.9365 30.05C26.9365 29.2167 27.1449 28.5 27.5615 27.9C27.9949 27.2833 28.6532 26.8167 29.5365 26.5C30.4199 26.1667 31.5615 26 32.9615 26H36.1615V28.475H33.6115C32.8449 28.475 32.3032 28.6 31.9865 28.85C31.6865 29.1 31.5365 29.4333 31.5365 29.85C31.5365 30.2667 31.6949 30.6 32.0115 30.85C32.3282 31.1 32.7615 31.225 33.3115 31.225C33.8282 31.225 34.2949 31.1 34.7115 30.85C35.1449 30.5833 35.4615 30.1833 35.6615 29.65L36.3115 31.4C36.0615 32.3333 35.5699 33.0417 34.8365 33.525C34.1199 33.9917 33.1699 34.225 31.9865 34.225ZM51.9348 34.225C50.7181 34.225 49.7014 33.975 48.8848 33.475C48.0848 32.975 47.4848 32.2083 47.0848 31.175C46.6848 30.1417 46.4848 28.8167 46.4848 27.2C46.4848 25.6167 46.6931 24.3083 47.1098 23.275C47.5431 22.2417 48.1681 21.475 48.9848 20.975C49.8014 20.475 50.7848 20.225 51.9348 20.225C53.1681 20.225 54.2848 20.5083 55.2848 21.075C56.3014 21.6417 57.1014 22.45 57.6848 23.5C58.2848 24.5333 58.5848 25.7667 58.5848 27.2C58.5848 28.65 58.2848 29.9 57.6848 30.95C57.1014 31.9833 56.3014 32.7917 55.2848 33.375C54.2848 33.9417 53.1681 34.225 51.9348 34.225ZM43.4098 34V15.45H48.1598V22.725L47.9098 27.2L47.9348 31.675V34H43.4098ZM50.9348 30.45C51.4681 30.45 51.9431 30.325 52.3598 30.075C52.7931 29.825 53.1348 29.4583 53.3848 28.975C53.6514 28.475 53.7848 27.8833 53.7848 27.2C53.7848 26.5167 53.6514 25.9417 53.3848 25.475C53.1348 24.9917 52.7931 24.625 52.3598 24.375C51.9431 24.125 51.4681 24 50.9348 24C50.4014 24 49.9181 24.125 49.4848 24.375C49.0681 24.625 48.7264 24.9917 48.4598 25.475C48.2098 25.9417 48.0848 26.5167 48.0848 27.2C48.0848 27.8833 48.2098 28.475 48.4598 28.975C48.7264 29.4583 49.0681 29.825 49.4848 30.075C49.9181 30.325 50.4014 30.45 50.9348 30.45ZM67.5926 34.225C66.1092 34.225 64.7926 33.925 63.6426 33.325C62.4926 32.725 61.5842 31.9 60.9176 30.85C60.2676 29.7833 59.9426 28.5667 59.9426 27.2C59.9426 25.8333 60.2676 24.625 60.9176 23.575C61.5842 22.525 62.4926 21.7083 63.6426 21.125C64.7926 20.525 66.1092 20.225 67.5926 20.225C69.0759 20.225 70.3926 20.525 71.5426 21.125C72.7092 21.7083 73.6176 22.525 74.2676 23.575C74.9176 24.625 75.2426 25.8333 75.2426 27.2C75.2426 28.5667 74.9176 29.7833 74.2676 30.85C73.6176 31.9 72.7092 32.725 71.5426 33.325C70.3926 33.925 69.0759 34.225 67.5926 34.225ZM67.5926 30.45C68.1426 30.45 68.6259 30.325 69.0426 30.075C69.4759 29.825 69.8176 29.4583 70.0676 28.975C70.3176 28.475 70.4426 27.8833 70.4426 27.2C70.4426 26.5167 70.3176 25.9417 70.0676 25.475C69.8176 24.9917 69.4759 24.625 69.0426 24.375C68.6259 24.125 68.1426 24 67.5926 24C67.0592 24 66.5759 24.125 66.1426 24.375C65.7259 24.625 65.3842 24.9917 65.1176 25.475C64.8676 25.9417 64.7426 26.5167 64.7426 27.2C64.7426 27.8833 64.8676 28.475 65.1176 28.975C65.3842 29.4583 65.7259 29.825 66.1426 30.075C66.5759 30.325 67.0592 30.45 67.5926 30.45ZM77.443 34V20.45H81.968V24.4L81.293 23.275C81.693 22.2583 82.343 21.5 83.243 21C84.143 20.4833 85.2346 20.225 86.518 20.225V24.5C86.3013 24.4667 86.1096 24.45 85.943 24.45C85.793 24.4333 85.6263 24.425 85.443 24.425C84.4763 24.425 83.693 24.6917 83.093 25.225C82.493 25.7417 82.193 26.5917 82.193 27.775V34H77.443ZM95.4561 34.225C93.8561 34.225 92.4561 33.925 91.2561 33.325C90.0727 32.7083 89.1477 31.875 88.4811 30.825C87.8311 29.7583 87.5061 28.55 87.5061 27.2C87.5061 25.85 87.8227 24.65 88.4561 23.6C89.1061 22.5333 89.9977 21.7083 91.1311 21.125C92.2644 20.525 93.5394 20.225 94.9561 20.225C96.2894 20.225 97.5061 20.5 98.6061 21.05C99.7061 21.5833 100.581 22.375 101.231 23.425C101.881 24.475 102.206 25.75 102.206 27.25C102.206 27.4167 102.198 27.6083 102.181 27.825C102.164 28.0417 102.148 28.2417 102.131 28.425H91.4061V25.925H99.6061L97.8061 26.625C97.8227 26.0083 97.7061 25.475 97.4561 25.025C97.2227 24.575 96.8894 24.225 96.4561 23.975C96.0394 23.725 95.5477 23.6 94.9811 23.6C94.4144 23.6 93.9144 23.725 93.4811 23.975C93.0644 24.225 92.7394 24.5833 92.5061 25.05C92.2727 25.5 92.1561 26.0333 92.1561 26.65V27.375C92.1561 28.0417 92.2894 28.6167 92.5561 29.1C92.8394 29.5833 93.2394 29.9583 93.7561 30.225C94.2727 30.475 94.8894 30.6 95.6061 30.6C96.2727 30.6 96.8394 30.5083 97.3061 30.325C97.7894 30.125 98.2644 29.825 98.7311 29.425L101.231 32.025C100.581 32.7417 99.7811 33.2917 98.8311 33.675C97.8811 34.0417 96.7561 34.225 95.4561 34.225ZM109.321 34.225C108.171 34.225 107.046 34.0917 105.946 33.825C104.863 33.5583 103.988 33.225 103.321 32.825L104.746 29.575C105.379 29.9583 106.121 30.2667 106.971 30.5C107.821 30.7167 108.654 30.825 109.471 30.825C110.271 30.825 110.821 30.7417 111.121 30.575C111.438 30.4083 111.596 30.1833 111.596 29.9C111.596 29.6333 111.446 29.4417 111.146 29.325C110.863 29.1917 110.479 29.0917 109.996 29.025C109.529 28.9583 109.013 28.8833 108.446 28.8C107.879 28.7167 107.304 28.6083 106.721 28.475C106.154 28.325 105.629 28.1083 105.146 27.825C104.679 27.525 104.304 27.125 104.021 26.625C103.738 26.125 103.596 25.4917 103.596 24.725C103.596 23.8583 103.846 23.0917 104.346 22.425C104.863 21.7417 105.613 21.2083 106.596 20.825C107.579 20.425 108.779 20.225 110.196 20.225C111.146 20.225 112.104 20.325 113.071 20.525C114.054 20.7083 114.879 20.9917 115.546 21.375L114.121 24.6C113.454 24.2167 112.788 23.9583 112.121 23.825C111.454 23.675 110.821 23.6 110.221 23.6C109.421 23.6 108.854 23.6917 108.521 23.875C108.204 24.0583 108.046 24.2833 108.046 24.55C108.046 24.8167 108.188 25.025 108.471 25.175C108.754 25.3083 109.129 25.4167 109.596 25.5C110.079 25.5667 110.604 25.6417 111.171 25.725C111.738 25.7917 112.304 25.9 112.871 26.05C113.454 26.2 113.979 26.425 114.446 26.725C114.929 27.0083 115.313 27.4 115.596 27.9C115.879 28.3833 116.021 29.0083 116.021 29.775C116.021 30.6083 115.763 31.3583 115.246 32.025C114.746 32.6917 113.996 33.225 112.996 33.625C112.013 34.025 110.788 34.225 109.321 34.225Z" fill="#F5D03A"/>
<path d="M13.75 33.825L12.9452 36.715L12.9667 36.721L12.9883 36.7267L13.75 33.825ZM10.525 32.425L7.78434 31.2048L6.76443 33.4957L8.83807 34.9058L10.525 32.425ZM12.15 28.775L13.7641 26.2462L10.8267 24.3713L9.40934 27.5548L12.15 28.775ZM14.85 30.025L13.9153 32.8757L13.9431 32.8848L13.971 32.8933L14.85 30.025ZM19.575 30.325L20.3839 33.2139L20.4369 33.199L20.4893 33.1823L19.575 30.325ZM20.475 29.825L18.2706 27.7901L18.2635 27.7978L20.475 29.825ZM20.225 28.125L18.6144 30.656L18.6144 30.656L20.225 28.125ZM18.8 27.55L19.5471 24.6445L18.8 27.55ZM16.85 27.1L16.2214 30.0334L16.2284 30.0349L16.2354 30.0364L16.85 27.1ZM14.725 26.525L13.7763 29.371L13.7863 29.3744L13.7962 29.3776L14.725 26.525ZM12.8 25.625L11.1525 28.1321L11.1778 28.1488L11.2035 28.1649L12.8 25.625ZM11.375 24.15L8.79639 25.6832L8.80568 25.6988L8.81515 25.7143L11.375 24.15ZM11.675 18.975L9.20146 17.2775L9.19004 17.2941L9.17885 17.3109L11.675 18.975ZM14.275 16.925L13.0456 14.1885H13.0456L14.275 16.925ZM21.95 16.55L21.2432 19.4655L21.2688 19.4718L21.2946 19.4775L21.95 16.55ZM24.925 17.675L27.6959 18.8248L28.7053 16.3925L26.4242 15.0764L24.925 17.675ZM23.4 21.35L21.9746 23.9897L24.8976 25.5682L26.1709 22.4998L23.4 21.35ZM20.925 20.35L20.1008 23.2346L20.1282 23.2424L20.1557 23.2497L20.925 20.35ZM16.9 20.225L17.8143 23.0823L17.8656 23.0659L17.9162 23.0477L16.9 20.225ZM16 20.775L13.641 18.9215L13.641 18.9215L16 20.775ZM16.25 22.5L14.5859 24.9961L14.6537 25.0413L14.7238 25.0828L16.25 22.5ZM17.675 23.05L16.9279 25.9555L16.9759 25.9678L17.0242 25.9786L17.675 23.05ZM19.625 23.475L18.9964 26.4084L19.0034 26.4099L19.0104 26.4114L19.625 23.475ZM21.75 24.05L20.8013 26.896L20.8414 26.9094L20.8818 26.9216L21.75 24.05ZM23.7 24.95L22.0525 27.4571L22.0778 27.4738L22.1035 27.4899L23.7 24.95ZM25.1 26.425L22.4909 27.9058L22.5149 27.948L22.5402 27.9894L25.1 26.425ZM24.775 31.525L22.2862 29.8499L22.2788 29.8609L24.775 31.525ZM22.2 33.575L20.9706 30.8385L20.9631 30.8419L20.9556 30.8453L22.2 33.575ZM17.9 31.35C16.7135 31.35 15.5867 31.2055 14.5117 30.9233L12.9883 36.7267C14.58 37.1445 16.2199 37.35 17.9 37.35V31.35ZM14.5548 30.935C13.4482 30.6268 12.6985 30.2751 12.2119 29.9442L8.83807 34.9058C10.0182 35.7082 11.4184 36.2899 12.9452 36.715L14.5548 30.935ZM13.2657 33.6452L14.8907 29.9952L9.40934 27.5548L7.78434 31.2048L13.2657 33.6452ZM10.5359 31.3038C11.5604 31.9577 12.6948 32.4755 13.9153 32.8757L15.7847 27.1743C14.9718 26.9078 14.3062 26.5923 13.7641 26.2462L10.5359 31.3038ZM13.971 32.8933C15.2712 33.2918 16.5922 33.5 17.925 33.5V27.5C17.2245 27.5 16.4955 27.3916 15.729 27.1567L13.971 32.8933ZM17.925 33.5C18.7433 33.5 19.5975 33.4341 20.3839 33.2139L18.7661 27.4361C18.7192 27.4492 18.4734 27.5 17.925 27.5V33.5ZM20.4893 33.1823C21.1296 32.9774 21.9969 32.6044 22.6865 31.8522L18.2635 27.7978C18.4387 27.6068 18.5949 27.5113 18.6556 27.4775C18.7178 27.443 18.7294 27.4457 18.6607 27.4677L20.4893 33.1823ZM22.6794 31.8598C23.368 31.1139 23.775 30.1457 23.775 29.075H17.775C17.775 28.8552 17.8155 28.6085 17.9146 28.3608C18.0128 28.1152 18.146 27.9251 18.2706 27.7902L22.6794 31.8598ZM23.775 29.075C23.775 27.5476 22.9782 26.3211 21.8356 25.594L18.6144 30.656C18.4674 30.5624 18.2322 30.3706 18.0412 30.0406C17.8442 29.7003 17.775 29.3522 17.775 29.075H23.775ZM21.8356 25.594C21.122 25.1399 20.3273 24.8451 19.5471 24.6445L18.0529 30.4555C18.4393 30.5549 18.5947 30.6435 18.6144 30.656L21.8356 25.594ZM19.5471 24.6445C18.9117 24.4811 18.2166 24.321 17.4646 24.1636L16.2354 30.0364C16.9167 30.179 17.5216 30.3189 18.0529 30.4555L19.5471 24.6445ZM17.4786 24.1666C16.8851 24.0394 16.277 23.8753 15.6538 23.6724L13.7962 29.3776C14.6064 29.6414 15.4149 29.8606 16.2214 30.0334L17.4786 24.1666ZM15.6737 23.6789C15.1851 23.5161 14.7631 23.3155 14.3965 23.0851L11.2035 28.1649C12.0036 28.6678 12.8649 29.0673 13.7763 29.371L15.6737 23.6789ZM14.4475 23.1179C14.237 22.9795 14.0725 22.8108 13.9348 22.5856L8.81515 25.7143C9.41088 26.6892 10.1964 27.5038 11.1525 28.1321L14.4475 23.1179ZM13.9536 22.6168C13.9339 22.5837 13.825 22.3774 13.825 21.825H7.825C7.825 23.1393 8.08273 24.483 8.79639 25.6832L13.9536 22.6168ZM13.825 21.825C13.825 21.3498 13.9426 20.9819 14.1712 20.6391L9.17885 17.3109C8.27408 18.6681 7.825 20.2002 7.825 21.825H13.825ZM14.1485 20.6725C14.3576 20.368 14.7447 20.0028 15.5044 19.6615L13.0456 14.1885C11.5053 14.8805 10.1591 15.882 9.20146 17.2775L14.1485 20.6725ZM15.5044 19.6615C16.1548 19.3693 17.1377 19.15 18.575 19.15V13.15C16.579 13.15 14.6952 13.4474 13.0456 14.1885L15.5044 19.6615ZM18.575 19.15C19.4907 19.15 20.3783 19.2559 21.2432 19.4655L22.6568 13.6344C21.3217 13.3108 19.9593 13.15 18.575 13.15V19.15ZM21.2946 19.4775C22.1567 19.6705 22.8568 19.9453 23.4258 20.2736L26.4242 15.0764C25.2599 14.4047 23.9766 13.9295 22.6054 13.6225L21.2946 19.4775ZM22.1541 16.5252L20.6291 20.2002L26.1709 22.4998L27.6959 18.8248L22.1541 16.5252ZM24.8254 18.7103C23.809 18.1614 22.7647 17.7343 21.6943 17.4503L20.1557 23.2497C20.7186 23.399 21.3243 23.6386 21.9746 23.9897L24.8254 18.7103ZM21.7492 17.4654C20.693 17.1637 19.6236 17 18.55 17V23C19.0097 23 19.5237 23.0697 20.1008 23.2346L21.7492 17.4654ZM18.55 17C17.6876 17 16.7535 17.0892 15.8838 17.4023L17.9162 23.0477C17.8844 23.0591 17.9137 23.0446 18.0303 23.0287C18.1445 23.0132 18.3143 23 18.55 23V17ZM15.9857 17.3677C15.2542 17.6018 14.332 18.0422 13.641 18.9215L18.359 22.6285C18.1933 22.8393 18.0266 22.9614 17.9268 23.0223C17.8303 23.0813 17.7809 23.093 17.8143 23.0823L15.9857 17.3677ZM13.641 18.9215C13.0375 19.6897 12.725 20.6108 12.725 21.575H18.725C18.725 21.7356 18.6996 21.9252 18.6308 22.1252C18.5619 22.3257 18.4637 22.4951 18.359 22.6285L13.641 18.9215ZM12.725 21.575C12.725 23.0714 13.4972 24.2704 14.5859 24.9961L17.9141 20.0039C18.0568 20.099 18.2821 20.2901 18.4653 20.6129C18.6547 20.9466 18.725 21.291 18.725 21.575H12.725ZM14.7238 25.0828C15.4111 25.4889 16.1744 25.7617 16.9279 25.9555L18.4221 20.1445C18.0089 20.0383 17.8222 19.9444 17.7762 19.9172L14.7238 25.0828ZM17.0242 25.9786C17.6327 26.1138 18.2902 26.2571 18.9964 26.4084L20.2536 20.5416C19.5598 20.3929 18.9173 20.2529 18.3258 20.1214L17.0242 25.9786ZM19.0104 26.4114C19.6132 26.5375 20.21 26.6989 20.8013 26.896L22.6987 21.2039C21.89 20.9344 21.0701 20.7125 20.2396 20.5386L19.0104 26.4114ZM20.8818 26.9216C21.3425 27.0609 21.7269 27.2432 22.0525 27.4571L25.3475 22.4429C24.5064 21.8902 23.5908 21.4724 22.6182 21.1784L20.8818 26.9216ZM22.1035 27.4899C22.2544 27.5848 22.3783 27.7074 22.4909 27.9058L27.7091 24.9442C27.1217 23.9093 26.3122 23.0485 25.2965 22.4101L22.1035 27.4899ZM22.5402 27.9894C22.544 27.9956 22.65 28.1712 22.65 28.7H28.65C28.65 27.3955 28.3894 26.0544 27.6598 24.8606L22.5402 27.9894ZM22.65 28.7C22.65 29.1026 22.5461 29.4638 22.2862 29.8499L27.2638 33.2001C28.1706 31.8529 28.65 30.3307 28.65 28.7H22.65ZM22.2788 29.8609C22.0911 30.1425 21.7263 30.4989 20.9706 30.8385L23.4294 36.3115C24.9737 35.6177 26.3255 34.6075 27.2712 33.1891L22.2788 29.8609ZM20.9556 30.8453C20.3345 31.1284 19.3614 31.35 17.9 31.35V37.35C19.9053 37.35 21.7989 37.0549 23.4444 36.3047L20.9556 30.8453ZM35.9865 34H32.9865V37H35.9865V34ZM35.9865 31.475H38.9865V30.7416L38.6482 30.0909L35.9865 31.475ZM35.6615 30.85H32.6615V31.5834L32.9999 32.2341L35.6615 30.85ZM34.9615 24.475L32.9233 26.6763L32.9655 26.7153L33.0091 26.7528L34.9615 24.475ZM30.8115 24.175L31.6736 27.0485L31.7063 27.0387L31.7388 27.0281L30.8115 24.175ZM29.1115 25.025L26.4241 26.3583L28.0638 29.6634L30.965 27.384L29.1115 25.025ZM27.5115 21.8L25.8727 19.2872L23.6388 20.7441L24.8241 23.1333L27.5115 21.8ZM30.2615 20.65L30.9891 23.5604L31.0049 23.5565L31.0206 23.5524L30.2615 20.65ZM38.5865 21.75L36.6473 24.039L36.6643 24.0534L36.6816 24.0676L38.5865 21.75ZM40.4115 34V37H43.4115V34H40.4115ZM29.2365 33.675L30.5542 30.9798L29.2365 33.675ZM27.5115 32.175L24.945 33.7284L24.9598 33.7528L24.9751 33.777L27.5115 32.175ZM27.5615 27.9L25.1069 26.1752L25.1022 26.182L25.0974 26.1888L27.5615 27.9ZM29.5365 26.5L30.5489 29.324L30.5724 29.3156L30.5957 29.3068L29.5365 26.5ZM36.1615 26H39.1615V23H36.1615V26ZM36.1615 28.475V31.475H39.1615V28.475H36.1615ZM31.9865 28.85L30.1276 26.4954L30.0965 26.5199L30.066 26.5453L31.9865 28.85ZM32.0115 30.85L30.1526 33.2046L30.1526 33.2046L32.0115 30.85ZM34.7115 30.85L36.255 33.4225L36.2695 33.4138L36.2838 33.405L34.7115 30.85ZM35.6615 29.65L38.4738 28.6054L35.675 21.0701L32.8525 28.5966L35.6615 29.65ZM36.3115 31.4L39.2094 32.1762L39.4569 31.2522L39.1238 30.3554L36.3115 31.4ZM34.8365 33.525L36.4735 36.039L36.4805 36.0345L36.4875 36.0299L34.8365 33.525ZM38.9865 34V31.475H32.9865V34H38.9865ZM38.6482 30.0909L38.3232 29.4659L32.9999 32.2341L33.3249 32.8591L38.6482 30.0909ZM38.6615 30.85V26.2H32.6615V30.85H38.6615ZM38.6615 26.2C38.6615 24.7848 38.1903 23.2913 36.9139 22.1972L33.0091 26.7528C32.8752 26.638 32.7683 26.4862 32.7067 26.3343C32.651 26.1972 32.6615 26.133 32.6615 26.2H38.6615ZM36.9997 22.2737C35.7356 21.1032 34.0924 20.85 32.7865 20.85V26.85C32.9338 26.85 33.0452 26.8578 33.1253 26.8674C33.2056 26.8771 33.245 26.8876 33.2517 26.8896C33.2652 26.8934 33.1128 26.8518 32.9233 26.6763L36.9997 22.2737ZM32.7865 20.85C31.7979 20.85 30.8269 21.0155 29.8843 21.3219L31.7388 27.0281C32.1295 26.9011 32.4752 26.85 32.7865 26.85V20.85ZM29.9495 21.3015C28.9841 21.5911 28.0664 22.0309 27.2581 22.666L30.965 27.384C31.09 27.2857 31.3056 27.1589 31.6736 27.0485L29.9495 21.3015ZM31.799 23.6917L30.199 20.4667L24.8241 23.1333L26.4241 26.3583L31.799 23.6917ZM29.1503 24.3128C29.5877 24.0276 30.183 23.762 30.9891 23.5604L29.5339 17.7396C28.2067 18.0714 26.9687 18.5724 25.8727 19.2872L29.1503 24.3128ZM31.0206 23.5524C31.8685 23.3306 32.6885 23.225 33.4865 23.225V17.225C32.1513 17.225 30.8213 17.4027 29.5024 17.7476L31.0206 23.5524ZM33.4865 23.225C35.2571 23.225 36.1705 23.635 36.6473 24.039L40.5258 19.461C38.6025 17.8316 36.116 17.225 33.4865 17.225V23.225ZM36.6816 24.0676C36.9755 24.3091 37.4115 24.8757 37.4115 26.475H43.4115C43.4115 23.7743 42.6309 21.1909 40.4914 19.4324L36.6816 24.0676ZM37.4115 26.475V34H43.4115V26.475H37.4115ZM40.4115 31H35.9865V37H40.4115V31ZM31.9865 31.225C31.2289 31.225 30.7905 31.0954 30.5542 30.9798L27.9189 36.3702C29.1825 36.9879 30.5775 37.225 31.9865 37.225V31.225ZM30.5542 30.9798C30.245 30.8287 30.1178 30.6835 30.048 30.573L24.9751 33.777C25.7053 34.9332 26.728 35.788 27.9189 36.3702L30.5542 30.9798ZM30.078 30.6216C29.995 30.4844 29.9365 30.3189 29.9365 30.05H23.9365C23.9365 31.3478 24.2614 32.5989 24.945 33.7284L30.078 30.6216ZM29.9365 30.05C29.9365 29.7392 30.0055 29.6402 30.0256 29.6112L25.0974 26.1888C24.2842 27.3598 23.9365 28.6941 23.9365 30.05H29.9365ZM30.0161 29.6248C30.0224 29.6159 30.0456 29.5843 30.1152 29.535C30.189 29.4826 30.3234 29.4049 30.5489 29.324L28.5241 23.676C27.2023 24.1499 25.975 24.9399 25.1069 26.1752L30.0161 29.6248ZM30.5957 29.3068C31.0188 29.1472 31.7652 29 32.9615 29V23C31.3579 23 29.8209 23.1862 28.4774 23.6932L30.5957 29.3068ZM32.9615 29H36.1615V23H32.9615V29ZM33.1615 26V28.475H39.1615V26H33.1615ZM36.1615 25.475H33.6115V31.475H36.1615V25.475ZM33.6115 25.475C32.6941 25.475 31.2747 25.5898 30.1276 26.4954L33.8455 31.2046C33.6939 31.3243 33.5585 31.3952 33.4673 31.435C33.3769 31.4745 33.3175 31.489 33.3049 31.4919C33.2915 31.495 33.3086 31.4901 33.364 31.4848C33.4187 31.4796 33.4999 31.475 33.6115 31.475V25.475ZM30.066 26.5453C29.0313 27.4075 28.5365 28.6111 28.5365 29.85H34.5365C34.5365 30.0068 34.5067 30.2476 34.3848 30.5186C34.2604 30.795 34.0823 31.0086 33.9071 31.1547L30.066 26.5453ZM28.5365 29.85C28.5365 31.1498 29.0883 32.3644 30.1526 33.2046L33.8705 28.4954C34.0397 28.629 34.2285 28.8377 34.3651 29.1253C34.5003 29.41 34.5365 29.6708 34.5365 29.85H28.5365ZM30.1526 33.2046C31.1622 34.0017 32.3299 34.225 33.3115 34.225V28.225C33.1932 28.225 33.4942 28.1983 33.8705 28.4954L30.1526 33.2046ZM33.3115 34.225C34.3361 34.225 35.3423 33.9701 36.255 33.4225L33.168 28.2775C33.1977 28.2597 33.2349 28.2436 33.2728 28.2334C33.3096 28.2236 33.3259 28.225 33.3115 28.225V34.225ZM36.2838 33.405C37.3523 32.7474 38.066 31.7821 38.4705 30.7034L32.8525 28.5966C32.8493 28.6052 32.8658 28.5587 32.9219 28.4879C32.9804 28.4139 33.0567 28.3458 33.1392 28.295L36.2838 33.405ZM32.8492 30.6946L33.4992 32.4446L39.1238 30.3554L38.4738 28.6054L32.8492 30.6946ZM33.4137 30.6238C33.3332 30.9244 33.2425 30.9826 33.1856 31.0201L36.4875 36.0299C37.8972 35.1007 38.7899 33.7423 39.2094 32.1762L33.4137 30.6238ZM33.1995 31.011C33.1234 31.0606 32.8038 31.225 31.9865 31.225V37.225C33.5359 37.225 35.1163 36.9228 36.4735 36.039L33.1995 31.011ZM48.8848 33.475L47.2948 36.019L47.3065 36.0263L47.3183 36.0336L48.8848 33.475ZM47.0848 31.175L44.2871 32.258L47.0848 31.175ZM47.1098 23.275L44.3432 22.1148L44.3352 22.1339L44.3274 22.1531L47.1098 23.275ZM48.9848 20.975L47.4183 18.4164V18.4164L48.9848 20.975ZM55.2848 21.075L53.8057 23.6851L53.8149 23.6903L53.8242 23.6954L55.2848 21.075ZM57.6848 23.5L55.0623 24.9569L55.0761 24.9818L55.0904 25.0064L57.6848 23.5ZM57.6848 30.95L55.08 29.4616L55.0761 29.4684L55.0723 29.4752L57.6848 30.95ZM55.2848 33.375L56.7638 35.9851L56.7708 35.9811L56.7778 35.9771L55.2848 33.375ZM43.4098 34H40.4098V37H43.4098V34ZM43.4098 15.45V12.45H40.4098V15.45H43.4098ZM48.1598 15.45H51.1598V12.45H48.1598V15.45ZM48.1598 22.725L51.1551 22.8923L51.1598 22.8087V22.725H48.1598ZM47.9098 27.2L44.9144 27.0327L44.9093 27.1246L44.9098 27.2168L47.9098 27.2ZM47.9348 31.675H50.9348V31.6666L50.9347 31.6582L47.9348 31.675ZM47.9348 34V37H50.9348V34H47.9348ZM52.3598 30.075L50.8606 27.4764L50.8383 27.4893L50.8163 27.5025L52.3598 30.075ZM53.3848 28.975L50.7377 27.5632L50.7288 27.5799L50.7201 27.5967L53.3848 28.975ZM53.3848 25.475L50.7201 26.8533L50.7489 26.909L50.78 26.9634L53.3848 25.475ZM52.3598 24.375L50.8163 26.9475L50.8383 26.9607L50.8606 26.9736L52.3598 24.375ZM49.4848 24.375L47.9856 21.7764L47.9633 21.7893L47.9413 21.8025L49.4848 24.375ZM48.4598 25.475L45.833 24.0258L45.8241 24.042L45.8153 24.0583L48.4598 25.475ZM48.4598 28.975L45.7765 30.3166L45.8037 30.371L45.833 30.4242L48.4598 28.975ZM49.4848 30.075L47.9413 32.6475L47.9633 32.6607L47.9856 32.6736L49.4848 30.075ZM51.9348 31.225C51.1232 31.225 50.6845 31.0593 50.4512 30.9164L47.3183 36.0336C48.7183 36.8907 50.313 37.225 51.9348 37.225V31.225ZM50.4748 30.931C50.3163 30.832 50.0907 30.6299 49.8825 30.092L44.2871 32.258C44.8789 33.7868 45.8532 35.118 47.2948 36.019L50.4748 30.931ZM49.8825 30.092C49.6626 29.524 49.4848 28.6013 49.4848 27.2H43.4848C43.4848 29.032 43.7069 30.7593 44.2871 32.258L49.8825 30.092ZM49.4848 27.2C49.4848 25.8518 49.6661 24.9573 49.8921 24.3969L44.3274 22.1531C43.7201 23.6594 43.4848 25.3816 43.4848 27.2H49.4848ZM49.8764 24.4352C50.109 23.8804 50.3585 23.6515 50.5512 23.5336L47.4183 18.4164C45.9777 19.2985 44.9772 20.6029 44.3432 22.1148L49.8764 24.4352ZM50.5512 23.5336C50.8094 23.3755 51.2258 23.225 51.9348 23.225V17.225C50.3437 17.225 48.7935 17.5745 47.4183 18.4164L50.5512 23.5336ZM51.9348 23.225C52.6888 23.225 53.2896 23.3926 53.8057 23.6851L56.7638 18.4649C55.2799 17.6241 53.6474 17.225 51.9348 17.225V23.225ZM53.8242 23.6954C54.3366 23.981 54.7412 24.379 55.0623 24.9569L60.3072 22.0431C59.4617 20.521 58.2663 19.3023 56.7453 18.4546L53.8242 23.6954ZM55.0904 25.0064C55.3762 25.4986 55.5848 26.19 55.5848 27.2H61.5848C61.5848 25.3433 61.1933 23.568 60.2791 21.9936L55.0904 25.0064ZM55.5848 27.2C55.5848 28.2319 55.3739 28.9473 55.08 29.4616L60.2895 32.4384C61.1956 30.8527 61.5848 29.0681 61.5848 27.2H55.5848ZM55.0723 29.4752C54.7506 30.0451 54.3347 30.4614 53.7918 30.7729L56.7778 35.9771C58.2682 35.122 59.4523 33.9216 60.2972 32.4248L55.0723 29.4752ZM53.8057 30.7649C53.2896 31.0574 52.6888 31.225 51.9348 31.225V37.225C53.6474 37.225 55.2799 36.8259 56.7638 35.9851L53.8057 30.7649ZM46.4098 34V15.45H40.4098V34H46.4098ZM43.4098 18.45H48.1598V12.45H43.4098V18.45ZM45.1598 15.45V22.725H51.1598V15.45H45.1598ZM45.1644 22.5577L44.9144 27.0327L50.9051 27.3673L51.1551 22.8923L45.1644 22.5577ZM44.9098 27.2168L44.9348 31.6918L50.9347 31.6582L50.9097 27.1832L44.9098 27.2168ZM44.9348 31.675V34H50.9348V31.675H44.9348ZM47.9348 31H43.4098V37H47.9348V31ZM50.9348 33.45C51.9571 33.45 52.9755 33.2041 53.9033 32.6475L50.8163 27.5025C50.8538 27.48 50.8938 27.4639 50.9275 27.455C50.9596 27.4466 50.9657 27.45 50.9348 27.45V33.45ZM53.8589 32.6736C54.833 32.1116 55.5598 31.3 56.0494 30.3533L50.7201 27.5967C50.7099 27.6164 50.7156 27.6002 50.7462 27.5673C50.7781 27.5331 50.8187 27.5006 50.8606 27.4764L53.8589 32.6736ZM56.0318 30.3868C56.5734 29.3714 56.7848 28.2751 56.7848 27.2H50.7848C50.7848 27.4916 50.7295 27.5786 50.7377 27.5632L56.0318 30.3868ZM56.7848 27.2C56.7848 26.1337 56.5764 25.0137 55.9895 23.9866L50.78 26.9634C50.7265 26.8696 50.7848 26.8997 50.7848 27.2H56.7848ZM56.0494 24.0967C55.5598 23.15 54.833 22.3384 53.8589 21.7764L50.8606 26.9736C50.8187 26.9494 50.7781 26.9169 50.7462 26.8827C50.7156 26.8498 50.7099 26.8336 50.7201 26.8533L56.0494 24.0967ZM53.9033 21.8025C52.9755 21.2459 51.9571 21 50.9348 21V27C50.9657 27 50.9596 27.0034 50.9275 26.995C50.8938 26.9861 50.8538 26.97 50.8163 26.9475L53.9033 21.8025ZM50.9348 21C49.9112 21 48.905 21.246 47.9856 21.7764L50.9839 26.9736C50.9765 26.9778 50.9667 26.9828 50.955 26.9876C50.9434 26.9923 50.9325 26.9958 50.9234 26.9982C50.9144 27.0005 50.9096 27.0011 50.9102 27.001C50.911 27.0009 50.9188 27 50.9348 27V21ZM47.9413 21.8025C47.0118 22.3602 46.32 23.1432 45.833 24.0258L51.0865 26.9242C51.1128 26.8766 51.1239 26.8687 51.1108 26.8827C51.1046 26.8894 51.094 26.8998 51.0791 26.9119C51.064 26.9242 51.0469 26.9363 51.0283 26.9475L47.9413 21.8025ZM45.8153 24.0583C45.2738 25.0691 45.0848 26.162 45.0848 27.2H51.0848C51.0848 26.8713 51.1457 26.8142 51.1042 26.8917L45.8153 24.0583ZM45.0848 27.2C45.0848 28.2472 45.277 29.3176 45.7765 30.3166L51.143 27.6334C51.1426 27.6324 51.0848 27.5195 51.0848 27.2H45.0848ZM45.833 30.4242C46.32 31.3068 47.0118 32.0898 47.9413 32.6475L51.0283 27.5025C51.0469 27.5137 51.064 27.5258 51.0791 27.5381C51.094 27.5502 51.1046 27.5606 51.1108 27.5673C51.1239 27.5813 51.1128 27.5734 51.0865 27.5258L45.833 30.4242ZM47.9856 32.6736C48.905 33.204 49.9112 33.45 50.9348 33.45V27.45C50.9188 27.45 50.911 27.4491 50.9102 27.449C50.9096 27.4489 50.9144 27.4495 50.9234 27.4518C50.9325 27.4542 50.9434 27.4577 50.955 27.4624C50.9667 27.4672 50.9765 27.4722 50.9839 27.4764L47.9856 32.6736ZM63.6426 33.325L65.0303 30.6652L63.6426 33.325ZM60.9176 30.85L58.3558 32.4111L58.3701 32.4347L58.3849 32.458L60.9176 30.85ZM60.9176 23.575L58.3849 21.967L58.3758 21.9814L58.3668 21.9959L60.9176 23.575ZM63.6426 21.125L64.9997 23.8005L65.015 23.7927L65.0303 23.7848L63.6426 21.125ZM71.5426 21.125L70.1549 23.7848L70.1778 23.7967L70.2009 23.8083L71.5426 21.125ZM74.2676 23.575L71.7168 25.1541L71.7168 25.1541L74.2676 23.575ZM74.2676 30.85L76.8184 32.4291L76.8239 32.4201L76.8294 32.4111L74.2676 30.85ZM71.5426 33.325L70.1705 30.6571L70.1627 30.6612L70.1549 30.6652L71.5426 33.325ZM69.0426 30.075L67.5434 27.4764L67.5211 27.4893L67.4991 27.5025L69.0426 30.075ZM70.0676 28.975L72.7322 30.3533L72.7417 30.335L72.7509 30.3166L70.0676 28.975ZM70.0676 25.475L67.4029 26.8533L67.4129 26.8725L67.4231 26.8917L70.0676 25.475ZM69.0426 24.375L67.4991 26.9475L67.5211 26.9607L67.5434 26.9736L69.0426 24.375ZM66.1426 24.375L64.6434 21.7764L64.6211 21.7893L64.5991 21.8025L66.1426 24.375ZM65.1176 25.475L62.4908 24.0258L62.4819 24.042L62.4731 24.0583L65.1176 25.475ZM65.1176 28.975L62.4343 30.3166L62.4615 30.371L62.4908 30.4242L65.1176 28.975ZM66.1426 30.075L64.5991 32.6475L64.6211 32.6607L64.6434 32.6736L66.1426 30.075ZM67.5926 31.225C66.5226 31.225 65.6939 31.0115 65.0303 30.6652L62.2549 35.9848C63.8912 36.8385 65.6959 37.225 67.5926 37.225V31.225ZM65.0303 30.6652C64.3268 30.2982 63.8219 29.8274 63.4502 29.242L58.3849 32.458C59.3466 33.9726 60.6583 35.1518 62.2549 35.9848L65.0303 30.6652ZM63.4794 29.2889C63.1426 28.7363 62.9426 28.0695 62.9426 27.2H56.9426C56.9426 29.0638 57.3925 30.8304 58.3558 32.4111L63.4794 29.2889ZM62.9426 27.2C62.9426 26.3298 63.1428 25.6801 63.4684 25.1541L58.3668 21.9959C57.3924 23.5699 56.9426 25.3369 56.9426 27.2H62.9426ZM63.4502 25.183C63.8171 24.6052 64.3118 24.1494 64.9997 23.8005L62.2854 18.4495C60.6733 19.2673 59.3514 20.4448 58.3849 21.967L63.4502 25.183ZM65.0303 23.7848C65.6939 23.4385 66.5226 23.225 67.5926 23.225V17.225C65.6959 17.225 63.8912 17.6115 62.2549 18.4652L65.0303 23.7848ZM67.5926 23.225C68.6626 23.225 69.4912 23.4385 70.1549 23.7848L72.9303 18.4652C71.2939 17.6115 69.4892 17.225 67.5926 17.225V23.225ZM70.2009 23.8083C70.8992 24.1574 71.3764 24.6042 71.7168 25.1541L76.8184 21.9959C75.8588 20.4458 74.5193 19.2592 72.8842 18.4417L70.2009 23.8083ZM71.7168 25.1541C72.0424 25.6801 72.2426 26.3298 72.2426 27.2H78.2426C78.2426 25.3369 77.7928 23.5699 76.8184 21.9959L71.7168 25.1541ZM72.2426 27.2C72.2426 28.0695 72.0425 28.7363 71.7058 29.2889L76.8294 32.4111C77.7926 30.8304 78.2426 29.0638 78.2426 27.2H72.2426ZM71.7168 29.2709C71.3716 29.8285 70.8842 30.2901 70.1705 30.6571L72.9146 35.9929C74.5343 35.1599 75.8636 33.9715 76.8184 32.4291L71.7168 29.2709ZM70.1549 30.6652C69.4912 31.0115 68.6626 31.225 67.5926 31.225V37.225C69.4892 37.225 71.2939 36.8385 72.9303 35.9848L70.1549 30.6652ZM67.5926 33.45C68.613 33.45 69.6441 33.2127 70.5861 32.6475L67.4991 27.5025C67.5203 27.4898 67.5422 27.4788 67.5637 27.4698C67.5852 27.4609 67.6033 27.4552 67.6164 27.4518C67.6436 27.4448 67.6396 27.45 67.5926 27.45V33.45ZM70.5417 32.6736C71.5159 32.1116 72.2426 31.3 72.7322 30.3533L67.4029 27.5967C67.3928 27.6164 67.3984 27.6002 67.429 27.5673C67.4609 27.5331 67.5015 27.5006 67.5434 27.4764L70.5417 32.6736ZM72.7509 30.3166C73.2504 29.3176 73.4426 28.2472 73.4426 27.2H67.4426C67.4426 27.5195 67.3848 27.6324 67.3843 27.6334L72.7509 30.3166ZM73.4426 27.2C73.4426 26.162 73.2535 25.0691 72.712 24.0583L67.4231 26.8917C67.3816 26.8142 67.4426 26.8713 67.4426 27.2H73.4426ZM72.7322 24.0967C72.2426 23.15 71.5159 22.3384 70.5417 21.7764L67.5434 26.9736C67.5015 26.9494 67.4609 26.9169 67.429 26.8827C67.3984 26.8498 67.3928 26.8336 67.4029 26.8533L72.7322 24.0967ZM70.5861 21.8025C69.6441 21.2373 68.613 21 67.5926 21V27C67.6396 27 67.6436 27.0052 67.6164 26.9982C67.6033 26.9948 67.5852 26.9891 67.5637 26.9802C67.5422 26.9712 67.5203 26.9602 67.4991 26.9475L70.5861 21.8025ZM67.5926 21C66.569 21 65.5628 21.246 64.6434 21.7764L67.6417 26.9736C67.6343 26.9778 67.6245 26.9828 67.6129 26.9876C67.6012 26.9923 67.5903 26.9958 67.5812 26.9982C67.5722 27.0005 67.5674 27.0011 67.5681 27.001C67.5688 27.0009 67.5766 27 67.5926 27V21ZM64.5991 21.8025C63.6696 22.3602 62.9778 23.1432 62.4908 24.0258L67.7443 26.9242C67.7706 26.8766 67.7817 26.8687 67.7687 26.8827C67.7624 26.8894 67.7519 26.8998 67.7369 26.9119C67.7219 26.9242 67.7047 26.9363 67.6861 26.9475L64.5991 21.8025ZM62.4731 24.0583C61.9316 25.0691 61.7426 26.162 61.7426 27.2H67.7426C67.7426 26.8713 67.8035 26.8142 67.762 26.8917L62.4731 24.0583ZM61.7426 27.2C61.7426 28.2472 61.9348 29.3176 62.4343 30.3166L67.8009 27.6334C67.8004 27.6324 67.7426 27.5195 67.7426 27.2H61.7426ZM62.4908 30.4242C62.9778 31.3068 63.6696 32.0898 64.5991 32.6475L67.6861 27.5025C67.7047 27.5137 67.7219 27.5258 67.7369 27.5381C67.7519 27.5502 67.7624 27.5606 67.7687 27.5673C67.7817 27.5813 67.7706 27.5734 67.7443 27.5258L62.4908 30.4242ZM64.6434 32.6736C65.5628 33.204 66.569 33.45 67.5926 33.45V27.45C67.5766 27.45 67.5688 27.4491 67.5681 27.449C67.5674 27.4489 67.5722 27.4495 67.5812 27.4518C67.5903 27.4542 67.6012 27.4577 67.6129 27.4624C67.6245 27.4672 67.6343 27.4722 67.6417 27.4764L64.6434 32.6736ZM77.443 34H74.443V37H77.443V34ZM77.443 20.45V17.45H74.443V20.45H77.443ZM81.968 20.45H84.968V17.45H81.968V20.45ZM81.968 24.4L79.3955 25.9435L84.968 35.231V24.4H81.968ZM81.293 23.275L78.5013 22.1766L77.9603 23.5515L78.7205 24.8185L81.293 23.275ZM83.243 21L84.6999 23.6225L84.7183 23.6122L84.7366 23.6018L83.243 21ZM86.518 20.225H89.518V17.225H86.518V20.225ZM86.518 24.5L86.0618 27.4651L89.518 27.9968V24.5H86.518ZM85.943 24.45L85.6117 27.4317L85.7768 27.45H85.943V24.45ZM83.093 25.225L85.0505 27.4983L85.0684 27.4829L85.0861 27.4672L83.093 25.225ZM82.193 34V37H85.193V34H82.193ZM80.443 34V20.45H74.443V34H80.443ZM77.443 23.45H81.968V17.45H77.443V23.45ZM78.968 20.45V24.4H84.968V20.45H78.968ZM84.5405 22.8565L83.8654 21.7315L78.7205 24.8185L79.3955 25.9435L84.5405 22.8565ZM84.0847 24.3734C84.2467 23.9614 84.447 23.7629 84.6999 23.6225L81.786 18.3775C80.2389 19.2371 79.1392 20.5552 78.5013 22.1766L84.0847 24.3734ZM84.7366 23.6018C85.0862 23.4011 85.6358 23.225 86.518 23.225V17.225C84.8334 17.225 83.1998 17.5656 81.7494 18.3982L84.7366 23.6018ZM83.518 20.225V24.5H89.518V20.225H83.518ZM86.9741 21.5349C86.6506 21.4851 86.3013 21.45 85.943 21.45V27.45C85.9276 27.45 85.9296 27.4493 85.9518 27.4512C85.9737 27.4531 86.0098 27.4571 86.0618 27.4651L86.9741 21.5349ZM86.2743 21.4683C85.9939 21.4372 85.7144 21.425 85.443 21.425V27.425C85.5382 27.425 85.592 27.4295 85.6117 27.4317L86.2743 21.4683ZM85.443 21.425C83.8991 21.425 82.3564 21.8659 81.0999 22.9828L85.0861 27.4672C85.0862 27.4671 85.0853 27.4679 85.0836 27.4691C85.0819 27.4704 85.0803 27.4714 85.0792 27.472C85.0762 27.4737 85.0807 27.4706 85.0973 27.4649C85.1302 27.4537 85.2344 27.425 85.443 27.425V21.425ZM81.1354 22.9517C79.6016 24.2725 79.193 26.156 79.193 27.775H85.193C85.193 27.4231 85.2393 27.2701 85.2469 27.2485C85.2491 27.2425 85.2389 27.2732 85.2047 27.325C85.1695 27.3785 85.1181 27.4401 85.0505 27.4983L81.1354 22.9517ZM79.193 27.775V34H85.193V27.775H79.193ZM82.193 31H77.443V37H82.193V31ZM91.2561 33.325L89.8696 35.9854L89.8919 35.997L89.9144 36.0083L91.2561 33.325ZM88.4811 30.825L85.9192 32.3861L85.9336 32.4097L85.9484 32.433L88.4811 30.825ZM88.4561 23.6L85.8942 22.0389L85.8872 22.0505L88.4561 23.6ZM91.1311 21.125L92.504 23.7924L92.5194 23.7845L92.5347 23.7764L91.1311 21.125ZM98.6061 21.05L97.2644 23.7333L97.2808 23.7415L97.2972 23.7494L98.6061 21.05ZM101.231 23.425L103.782 21.8459V21.8459L101.231 23.425ZM102.181 27.825L105.172 28.0551L102.181 27.825ZM102.131 28.425V31.425H104.871L105.119 28.6966L102.131 28.425ZM91.4061 28.425H88.4061V31.425H91.4061V28.425ZM91.4061 25.925V22.925H88.4061V25.925H91.4061ZM99.6061 25.925L100.693 28.721L99.6061 22.925V25.925ZM97.8061 26.625L94.8072 26.5439L94.6852 31.0575L98.8934 29.421L97.8061 26.625ZM97.4561 25.025L94.7928 26.406L94.8126 26.4442L94.8336 26.4819L97.4561 25.025ZM96.4561 23.975L94.9126 26.5475L94.9346 26.5607L94.9569 26.5736L96.4561 23.975ZM93.4811 23.975L91.9819 21.3764L91.9596 21.3893L91.9376 21.4025L93.4811 23.975ZM92.5061 25.05L95.1693 26.431L95.1795 26.4114L95.1893 26.3916L92.5061 25.05ZM92.5561 29.1L89.9293 30.5492L89.9482 30.5834L89.968 30.6172L92.5561 29.1ZM93.7561 30.225L92.3801 32.8909L92.4145 32.9086L92.4494 32.9255L93.7561 30.225ZM97.3061 30.325L98.403 33.1173L98.4282 33.1074L98.4531 33.097L97.3061 30.325ZM98.7311 29.425L100.894 27.3457L98.9298 25.3034L96.7787 27.1472L98.7311 29.425ZM101.231 32.025L103.453 34.0404L105.335 31.9652L103.394 29.9457L101.231 32.025ZM98.8311 33.675L99.9113 36.4738L99.9325 36.4656L99.9536 36.4571L98.8311 33.675ZM95.4561 31.225C94.2329 31.225 93.3083 30.997 92.5977 30.6417L89.9144 36.0083C91.6038 36.853 93.4793 37.225 95.4561 37.225V31.225ZM92.6425 30.6646C91.8919 30.2734 91.3769 29.789 91.0137 29.217L85.9484 32.433C86.9185 33.961 88.2536 35.1433 89.8696 35.9854L92.6425 30.6646ZM91.0429 29.2639C90.7026 28.7054 90.5061 28.0454 90.5061 27.2H84.5061C84.5061 29.0546 84.9596 30.8113 85.9192 32.3861L91.0429 29.2639ZM90.5061 27.2C90.5061 26.3393 90.7016 25.6855 91.0249 25.1495L85.8872 22.0505C84.9438 23.6145 84.5061 25.3607 84.5061 27.2H90.5061ZM91.0179 25.1611C91.3747 24.5755 91.8506 24.1287 92.504 23.7924L89.7581 18.4576C88.1449 19.2879 86.8374 20.4911 85.8942 22.0389L91.0179 25.1611ZM92.5347 23.7764C93.1917 23.4285 93.9765 23.225 94.9561 23.225V17.225C93.1023 17.225 91.3371 17.6214 89.7274 18.4736L92.5347 23.7764ZM94.9561 23.225C95.8636 23.225 96.6153 23.4087 97.2644 23.7333L99.9477 18.3667C98.3968 17.5913 96.7152 17.225 94.9561 17.225V23.225ZM97.2972 23.7494C97.8799 24.0319 98.3264 24.4325 98.6803 25.0041L103.782 21.8459C102.836 20.3175 101.532 19.1347 99.9149 18.3506L97.2972 23.7494ZM98.6803 25.0041C98.9792 25.487 99.2061 26.1877 99.2061 27.25H105.206C105.206 25.3123 104.783 23.463 103.782 21.8459L98.6803 25.0041ZM99.2061 27.25C99.2061 27.3209 99.2023 27.4333 99.1899 27.5949L105.172 28.0551C105.193 27.7834 105.206 27.5124 105.206 27.25H99.2061ZM99.1899 27.5949C99.1741 27.8001 99.1586 27.9861 99.1434 28.1534L105.119 28.6966C105.137 28.4972 105.155 28.2832 105.172 28.0551L99.1899 27.5949ZM102.131 25.425H91.4061V31.425H102.131V25.425ZM94.4061 28.425V25.925H88.4061V28.425H94.4061ZM91.4061 28.925H99.6061V22.925H91.4061V28.925ZM98.5187 23.129L96.7187 23.829L98.8934 29.421L100.693 28.721L98.5187 23.129ZM100.805 26.7061C100.833 25.6592 100.637 24.5732 100.079 23.5681L94.8336 26.4819C94.8217 26.4606 94.8133 26.4414 94.8076 26.4263C94.802 26.4113 94.8002 26.403 94.8004 26.4036C94.8006 26.4048 94.8098 26.4474 94.8072 26.5439L100.805 26.7061ZM100.119 23.644C99.6259 22.6925 98.8918 21.9168 97.9552 21.3764L94.9569 26.5736C94.9337 26.5602 94.8968 26.534 94.8586 26.494C94.8207 26.4542 94.8001 26.42 94.7928 26.406L100.119 23.644ZM97.9995 21.4025C97.0439 20.8291 95.9999 20.6 94.9811 20.6V26.6C95.0438 26.6 95.0576 26.6069 95.0356 26.6013C95.0248 26.5985 95.0072 26.5932 94.9847 26.5839C94.9621 26.5746 94.9376 26.5625 94.9126 26.5475L97.9995 21.4025ZM94.9811 20.6C93.9592 20.6 92.929 20.83 91.9819 21.3764L94.9802 26.5736C94.9655 26.582 94.9508 26.5891 94.937 26.5947C94.9233 26.6001 94.9134 26.603 94.9087 26.6042C94.9041 26.6053 94.9066 26.6044 94.9177 26.603C94.929 26.6017 94.9497 26.6 94.9811 26.6V20.6ZM91.9376 21.4025C90.9953 21.9679 90.2916 22.7706 89.8228 23.7084L95.1893 26.3916C95.1933 26.3838 95.182 26.4081 95.147 26.4467C95.1109 26.4865 95.0674 26.5218 95.0245 26.5475L91.9376 21.4025ZM89.8428 23.669C89.3453 24.6285 89.1561 25.6555 89.1561 26.65H95.1561C95.1561 26.4111 95.2002 26.3715 95.1693 26.431L89.8428 23.669ZM89.1561 26.65V27.375H95.1561V26.65H89.1561ZM89.1561 27.375C89.1561 28.4438 89.3717 29.5386 89.9293 30.5492L95.1828 27.6508C95.1921 27.6676 95.187 27.6651 95.1785 27.6286C95.1695 27.5897 95.1561 27.5091 95.1561 27.375H89.1561ZM89.968 30.6172C90.5497 31.6095 91.3789 32.3741 92.3801 32.8909L95.132 27.5591C95.1175 27.5517 95.1112 27.5472 95.1108 27.547C95.1106 27.5468 95.1143 27.5495 95.1204 27.5551C95.1265 27.5608 95.1324 27.5673 95.1375 27.5737C95.1425 27.58 95.1446 27.5836 95.1441 27.5828L89.968 30.6172ZM92.4494 32.9255C93.4618 33.4154 94.5465 33.6 95.6061 33.6V27.6C95.2323 27.6 95.0836 27.5346 95.0627 27.5245L92.4494 32.9255ZM95.6061 33.6C96.5314 33.6 97.4926 33.4749 98.403 33.1173L96.2091 27.5327C96.1862 27.5417 96.0141 27.6 95.6061 27.6V33.6ZM98.4531 33.097C99.2754 32.7568 100.017 32.2738 100.683 31.7028L96.7787 27.1472C96.5116 27.3762 96.3034 27.4932 96.159 27.5529L98.4531 33.097ZM96.5686 31.5043L99.0686 34.1043L103.394 29.9457L100.894 27.3457L96.5686 31.5043ZM99.0089 30.0096C98.6807 30.3714 98.2641 30.6688 97.7085 30.8929L99.9536 36.4571C101.298 35.9146 102.481 35.1119 103.453 34.0404L99.0089 30.0096ZM97.7508 30.8762C97.2261 31.0787 96.4843 31.225 95.4561 31.225V37.225C97.0278 37.225 98.536 37.0046 99.9113 36.4738L97.7508 30.8762ZM105.946 33.825L105.229 36.7381L105.239 36.7406L105.946 33.825ZM103.321 32.825L100.574 31.6203L99.5132 34.0388L101.778 35.3975L103.321 32.825ZM104.746 29.575L106.299 27.0085L103.372 25.2369L101.999 28.3703L104.746 29.575ZM106.971 30.5L106.177 33.393L106.203 33.4003L106.23 33.407L106.971 30.5ZM111.121 30.575L109.724 27.9202L109.694 27.936L109.664 27.9525L111.121 30.575ZM111.146 29.325L109.869 32.0395L109.962 32.0835L110.059 32.121L111.146 29.325ZM109.996 29.025L109.572 31.9948L109.579 31.9959L109.586 31.9969L109.996 29.025ZM108.446 28.8L108.01 31.7681L108.446 28.8ZM106.721 28.475L105.953 31.3751L106.003 31.3882L106.053 31.3996L106.721 28.475ZM105.146 27.825L103.524 30.3485L103.576 30.3819L103.629 30.4131L105.146 27.825ZM104.021 26.625L106.631 25.146L104.021 26.625ZM104.346 22.425L101.953 20.6157L101.946 20.625L104.346 22.425ZM106.596 20.825L107.686 23.6201L107.706 23.6122L107.726 23.6039L106.596 20.825ZM113.071 20.525L112.463 23.4628L112.492 23.4688L112.521 23.4742L113.071 20.525ZM115.546 21.375L118.29 22.5875L119.381 20.1193L117.042 18.7743L115.546 21.375ZM114.121 24.6L112.626 27.2007L115.517 28.8633L116.865 25.8125L114.121 24.6ZM112.121 23.825L111.463 26.7518L111.498 26.7597L111.533 26.7667L112.121 23.825ZM108.521 23.875L107.075 21.2464L107.046 21.2622L107.018 21.2787L108.521 23.875ZM108.471 25.175L107.067 27.8264L107.13 27.8594L107.194 27.8895L108.471 25.175ZM109.596 25.5L109.069 28.4533L109.127 28.4637L109.186 28.4719L109.596 25.5ZM111.171 25.725L110.735 28.6931L110.778 28.6994L110.821 28.7045L111.171 25.725ZM112.871 26.05L112.103 28.9501L112.114 28.9528L112.124 28.9555L112.871 26.05ZM114.446 26.725L112.824 29.2485L112.876 29.2819L112.929 29.3131L114.446 26.725ZM115.596 27.9L112.986 29.379L112.997 29.3982L113.008 29.4172L115.596 27.9ZM115.246 32.025L112.875 30.1873L112.86 30.206L112.846 30.225L115.246 32.025ZM112.996 33.625L111.882 30.8396L111.874 30.8428L111.866 30.8461L112.996 33.625ZM109.321 31.225C108.405 31.225 107.518 31.1191 106.653 30.9095L105.239 36.7406C106.574 37.0642 107.937 37.225 109.321 37.225V31.225ZM106.663 30.912C105.756 30.6886 105.189 30.4474 104.865 30.2525L101.778 35.3975C102.786 36.0026 103.97 36.4281 105.229 36.738L106.663 30.912ZM106.069 34.0297L107.494 30.7797L101.999 28.3703L100.574 31.6203L106.069 34.0297ZM103.193 32.1415C104.103 32.6924 105.109 33.0999 106.177 33.393L107.765 27.607C107.133 27.4335 106.656 27.2243 106.299 27.0085L103.193 32.1415ZM106.23 33.407C107.304 33.6809 108.387 33.825 109.471 33.825V27.825C108.922 27.825 108.338 27.7524 107.712 27.593L106.23 33.407ZM109.471 33.825C109.962 33.825 110.46 33.8003 110.933 33.7286C111.37 33.6625 111.982 33.5288 112.578 33.1975L109.664 27.9525C109.829 27.8609 109.955 27.8204 110.003 27.8063C110.055 27.791 110.07 27.791 110.034 27.7964C110.001 27.8014 109.938 27.809 109.839 27.8151C109.742 27.8211 109.62 27.825 109.471 27.825V33.825ZM112.518 33.2298C113.514 32.7055 114.596 31.6052 114.596 29.9H108.596C108.596 29.4433 108.736 28.9636 109.024 28.5548C109.288 28.1795 109.584 27.994 109.724 27.9202L112.518 33.2298ZM114.596 29.9C114.596 29.1646 114.374 28.3822 113.846 27.7073C113.348 27.0711 112.728 26.7215 112.233 26.529L110.059 32.121C109.864 32.0452 109.469 31.8497 109.121 31.4052C108.743 30.922 108.596 30.3688 108.596 29.9H114.596ZM112.423 26.6105C111.757 26.297 111.042 26.1409 110.406 26.0531L109.586 31.9969C109.736 32.0176 109.834 32.0386 109.889 32.0529C109.946 32.0678 109.931 32.0689 109.869 32.0395L112.423 26.6105ZM110.42 26.0552C109.959 25.9892 109.446 25.9148 108.883 25.8319L108.01 31.7681C108.58 31.8519 109.1 31.9275 109.572 31.9948L110.42 26.0552ZM108.883 25.8319C108.397 25.7605 107.9 25.667 107.39 25.5504L106.053 31.3996C106.709 31.5497 107.362 31.6728 108.01 31.7681L108.883 25.8319ZM107.489 25.5749C107.173 25.4912 106.901 25.3765 106.663 25.2369L103.629 30.4131C104.357 30.8401 105.136 31.1588 105.953 31.3751L107.489 25.5749ZM106.768 25.3015C106.726 25.274 106.684 25.2386 106.631 25.146L101.411 28.104C101.925 29.0114 102.633 29.776 103.524 30.3485L106.768 25.3015ZM106.631 25.146C106.675 25.223 106.596 25.1404 106.596 24.725H100.596C100.596 25.843 100.801 27.027 101.411 28.104L106.631 25.146ZM106.596 24.725C106.596 24.4796 106.652 24.3505 106.746 24.225L101.946 20.625C101.04 21.8328 100.596 23.2371 100.596 24.725H106.596ZM106.739 24.2343C106.851 24.0863 107.1 23.8485 107.686 23.6201L105.506 18.0299C104.126 18.5682 102.875 19.397 101.953 20.6157L106.739 24.2343ZM107.726 23.6039C108.253 23.3899 109.045 23.225 110.196 23.225V17.225C108.514 17.225 106.906 17.4601 105.466 18.0461L107.726 23.6039ZM110.196 23.225C110.934 23.225 111.689 23.3025 112.463 23.4628L113.679 17.5872C112.52 17.3475 111.358 17.225 110.196 17.225V23.225ZM112.521 23.4742C113.267 23.6131 113.75 23.8031 114.051 23.9757L117.042 18.7743C116.008 18.1802 114.842 17.8035 113.621 17.5758L112.521 23.4742ZM112.802 20.1625L111.377 23.3875L116.865 25.8125L118.29 22.5875L112.802 20.1625ZM115.617 21.9993C114.704 21.4748 113.734 21.0881 112.709 20.8833L111.533 26.7667C111.842 26.8286 112.204 26.9585 112.626 27.2007L115.617 21.9993ZM112.78 20.8982C111.926 20.7061 111.071 20.6 110.221 20.6V26.6C110.571 26.6 110.983 26.6439 111.463 26.7518L112.78 20.8982ZM110.221 20.6C109.358 20.6 108.122 20.6705 107.075 21.2464L109.967 26.5036C109.833 26.5774 109.732 26.6113 109.691 26.6237C109.649 26.6367 109.64 26.636 109.675 26.6303C109.709 26.6248 109.771 26.6168 109.866 26.6105C109.96 26.6042 110.077 26.6 110.221 26.6V20.6ZM107.018 21.2787C106.163 21.7737 105.046 22.8294 105.046 24.55H111.046C111.046 25.0553 110.883 25.5319 110.618 25.9077C110.379 26.2474 110.124 26.4136 110.024 26.4713L107.018 21.2787ZM105.046 24.55C105.046 26.1738 106.04 27.2826 107.067 27.8264L109.875 22.5236C110.05 22.6167 110.364 22.8237 110.633 23.2193C110.921 23.6425 111.046 24.1188 111.046 24.55H105.046ZM107.194 27.8895C107.804 28.1767 108.461 28.3448 109.069 28.4533L110.123 22.5467C109.972 22.5197 109.866 22.4939 109.797 22.4741C109.727 22.4537 109.717 22.4456 109.748 22.4605L107.194 27.8895ZM109.186 28.4719C109.659 28.5371 110.175 28.6108 110.735 28.6931L111.608 22.7569C111.034 22.6725 110.5 22.5962 110.006 22.5281L109.186 28.4719ZM110.821 28.7045C111.243 28.7541 111.67 28.8354 112.103 28.9501L113.639 23.1499C112.939 22.9646 112.233 22.8292 111.522 22.7455L110.821 28.7045ZM112.124 28.9555C112.424 29.0325 112.649 29.136 112.824 29.2485L116.068 24.2015C115.31 23.714 114.485 23.3675 113.618 23.1445L112.124 28.9555ZM112.929 29.3131C112.939 29.3187 112.944 29.3227 112.946 29.3246C112.949 29.3266 112.951 29.3281 112.952 29.3296C112.954 29.3312 112.966 29.3438 112.986 29.379L118.206 26.421C117.67 25.4739 116.914 24.6944 115.963 24.1369L112.929 29.3131ZM113.008 29.4172C112.973 29.3581 112.977 29.3398 112.989 29.3944C113.002 29.4518 113.021 29.5727 113.021 29.775H119.021C119.021 28.6635 118.819 27.4654 118.184 26.3828L113.008 29.4172ZM113.021 29.775C113.021 29.9343 112.989 30.0396 112.875 30.1873L117.617 33.8627C118.536 32.6771 119.021 31.2824 119.021 29.775H113.021ZM112.846 30.225C112.76 30.3403 112.518 30.5852 111.882 30.8396L114.11 36.4104C115.474 35.8648 116.733 35.0431 117.646 33.825L112.846 30.225ZM111.866 30.8461C111.35 31.0558 110.538 31.225 109.321 31.225V37.225C111.037 37.225 112.675 36.9942 114.126 36.4039L111.866 30.8461Z" fill="#FB6800" mask="url(#path-1-outside-1_574_7)"/>
<mask id="path-3-outside-2_574_7" maskUnits="userSpaceOnUse" x="112" y="13" width="114" height="29" fill="black">
<rect fill="white" x="112" y="13" width="114" height="29"/>
<path d="M117.95 34L125.6 23.375L125.575 26.9L118.225 16.5H123.8L128.5 23.275L126.125 23.3L130.75 16.5H136.1L128.75 26.7V23.2L136.5 34H130.8L126.025 26.875H128.3L123.6 34H117.95ZM146.238 34.225C145.088 34.225 144.105 33.975 143.288 33.475C142.472 32.9583 141.847 32.1917 141.413 31.175C140.997 30.1417 140.788 28.825 140.788 27.225C140.788 25.6083 140.988 24.2917 141.388 23.275C141.788 22.2417 142.388 21.475 143.188 20.975C144.005 20.475 145.022 20.225 146.238 20.225C147.472 20.225 148.588 20.5167 149.588 21.1C150.605 21.6667 151.405 22.475 151.988 23.525C152.588 24.5583 152.888 25.7917 152.888 27.225C152.888 28.6583 152.588 29.9 151.988 30.95C151.405 32 150.605 32.8083 149.588 33.375C148.588 33.9417 147.472 34.225 146.238 34.225ZM137.713 38.85V20.45H142.238V22.75L142.213 27.225L142.463 31.725V38.85H137.713ZM145.238 30.45C145.772 30.45 146.247 30.325 146.663 30.075C147.097 29.825 147.438 29.4583 147.688 28.975C147.955 28.4917 148.088 27.9083 148.088 27.225C148.088 26.5417 147.955 25.9583 147.688 25.475C147.438 24.9917 147.097 24.625 146.663 24.375C146.247 24.125 145.772 24 145.238 24C144.705 24 144.222 24.125 143.788 24.375C143.372 24.625 143.03 24.9917 142.763 25.475C142.513 25.9583 142.388 26.5417 142.388 27.225C142.388 27.9083 142.513 28.4917 142.763 28.975C143.03 29.4583 143.372 29.825 143.788 30.075C144.222 30.325 144.705 30.45 145.238 30.45ZM162.196 34.225C160.596 34.225 159.196 33.925 157.996 33.325C156.813 32.7083 155.888 31.875 155.221 30.825C154.571 29.7583 154.246 28.55 154.246 27.2C154.246 25.85 154.563 24.65 155.196 23.6C155.846 22.5333 156.738 21.7083 157.871 21.125C159.005 20.525 160.28 20.225 161.696 20.225C163.03 20.225 164.246 20.5 165.346 21.05C166.446 21.5833 167.321 22.375 167.971 23.425C168.621 24.475 168.946 25.75 168.946 27.25C168.946 27.4167 168.938 27.6083 168.921 27.825C168.905 28.0417 168.888 28.2417 168.871 28.425H158.146V25.925H166.346L164.546 26.625C164.563 26.0083 164.446 25.475 164.196 25.025C163.963 24.575 163.63 24.225 163.196 23.975C162.78 23.725 162.288 23.6 161.721 23.6C161.155 23.6 160.655 23.725 160.221 23.975C159.805 24.225 159.48 24.5833 159.246 25.05C159.013 25.5 158.896 26.0333 158.896 26.65V27.375C158.896 28.0417 159.03 28.6167 159.296 29.1C159.58 29.5833 159.98 29.9583 160.496 30.225C161.013 30.475 161.63 30.6 162.346 30.6C163.013 30.6 163.58 30.5083 164.046 30.325C164.53 30.125 165.005 29.825 165.471 29.425L167.971 32.025C167.321 32.7417 166.521 33.2917 165.571 33.675C164.621 34.0417 163.496 34.225 162.196 34.225ZM171.136 34V20.45H175.661V24.4L174.986 23.275C175.386 22.2583 176.036 21.5 176.936 21C177.836 20.4833 178.928 20.225 180.211 20.225V24.5C179.995 24.4667 179.803 24.45 179.636 24.45C179.486 24.4333 179.32 24.425 179.136 24.425C178.17 24.425 177.386 24.6917 176.786 25.225C176.186 25.7417 175.886 26.5917 175.886 27.775V34H171.136ZM188.637 34.225C186.903 34.225 185.553 33.8 184.587 32.95C183.62 32.0833 183.137 30.7833 183.137 29.05V17.425H187.887V29C187.887 29.4833 188.02 29.8667 188.287 30.15C188.553 30.4167 188.895 30.55 189.312 30.55C189.878 30.55 190.362 30.4083 190.762 30.125L191.937 33.45C191.537 33.7167 191.045 33.9083 190.462 34.025C189.878 34.1583 189.27 34.225 188.637 34.225ZM181.162 24.5V20.95H190.987V24.5H181.162ZM200.178 34.225C198.694 34.225 197.378 33.925 196.228 33.325C195.078 32.725 194.169 31.9 193.503 30.85C192.853 29.7833 192.528 28.5667 192.528 27.2C192.528 25.8333 192.853 24.625 193.503 23.575C194.169 22.525 195.078 21.7083 196.228 21.125C197.378 20.525 198.694 20.225 200.178 20.225C201.661 20.225 202.978 20.525 204.128 21.125C205.294 21.7083 206.203 22.525 206.853 23.575C207.503 24.625 207.828 25.8333 207.828 27.2C207.828 28.5667 207.503 29.7833 206.853 30.85C206.203 31.9 205.294 32.725 204.128 33.325C202.978 33.925 201.661 34.225 200.178 34.225ZM200.178 30.45C200.728 30.45 201.211 30.325 201.628 30.075C202.061 29.825 202.403 29.4583 202.653 28.975C202.903 28.475 203.028 27.8833 203.028 27.2C203.028 26.5167 202.903 25.9417 202.653 25.475C202.403 24.9917 202.061 24.625 201.628 24.375C201.211 24.125 200.728 24 200.178 24C199.644 24 199.161 24.125 198.728 24.375C198.311 24.625 197.969 24.9917 197.703 25.475C197.453 25.9417 197.328 26.5167 197.328 27.2C197.328 27.8833 197.453 28.475 197.703 28.975C197.969 29.4583 198.311 29.825 198.728 30.075C199.161 30.325 199.644 30.45 200.178 30.45ZM214.953 34.225C213.803 34.225 212.678 34.0917 211.578 33.825C210.495 33.5583 209.62 33.225 208.953 32.825L210.378 29.575C211.011 29.9583 211.753 30.2667 212.603 30.5C213.453 30.7167 214.286 30.825 215.103 30.825C215.903 30.825 216.453 30.7417 216.753 30.575C217.07 30.4083 217.228 30.1833 217.228 29.9C217.228 29.6333 217.078 29.4417 216.778 29.325C216.495 29.1917 216.111 29.0917 215.628 29.025C215.161 28.9583 214.645 28.8833 214.078 28.8C213.511 28.7167 212.936 28.6083 212.353 28.475C211.786 28.325 211.261 28.1083 210.778 27.825C210.311 27.525 209.936 27.125 209.653 26.625C209.37 26.125 209.228 25.4917 209.228 24.725C209.228 23.8583 209.478 23.0917 209.978 22.425C210.495 21.7417 211.245 21.2083 212.228 20.825C213.211 20.425 214.411 20.225 215.828 20.225C216.778 20.225 217.736 20.325 218.703 20.525C219.686 20.7083 220.511 20.9917 221.178 21.375L219.753 24.6C219.086 24.2167 218.42 23.9583 217.753 23.825C217.086 23.675 216.453 23.6 215.853 23.6C215.053 23.6 214.486 23.6917 214.153 23.875C213.836 24.0583 213.678 24.2833 213.678 24.55C213.678 24.8167 213.82 25.025 214.103 25.175C214.386 25.3083 214.761 25.4167 215.228 25.5C215.711 25.5667 216.236 25.6417 216.803 25.725C217.37 25.7917 217.936 25.9 218.503 26.05C219.086 26.2 219.611 26.425 220.078 26.725C220.561 27.0083 220.945 27.4 221.228 27.9C221.511 28.3833 221.653 29.0083 221.653 29.775C221.653 30.6083 221.395 31.3583 220.878 32.025C220.378 32.6917 219.628 33.225 218.628 33.625C217.645 34.025 216.42 34.225 214.953 34.225Z"/>
</mask>
<path d="M117.95 34L125.6 23.375L125.575 26.9L118.225 16.5H123.8L128.5 23.275L126.125 23.3L130.75 16.5H136.1L128.75 26.7V23.2L136.5 34H130.8L126.025 26.875H128.3L123.6 34H117.95ZM146.238 34.225C145.088 34.225 144.105 33.975 143.288 33.475C142.472 32.9583 141.847 32.1917 141.413 31.175C140.997 30.1417 140.788 28.825 140.788 27.225C140.788 25.6083 140.988 24.2917 141.388 23.275C141.788 22.2417 142.388 21.475 143.188 20.975C144.005 20.475 145.022 20.225 146.238 20.225C147.472 20.225 148.588 20.5167 149.588 21.1C150.605 21.6667 151.405 22.475 151.988 23.525C152.588 24.5583 152.888 25.7917 152.888 27.225C152.888 28.6583 152.588 29.9 151.988 30.95C151.405 32 150.605 32.8083 149.588 33.375C148.588 33.9417 147.472 34.225 146.238 34.225ZM137.713 38.85V20.45H142.238V22.75L142.213 27.225L142.463 31.725V38.85H137.713ZM145.238 30.45C145.772 30.45 146.247 30.325 146.663 30.075C147.097 29.825 147.438 29.4583 147.688 28.975C147.955 28.4917 148.088 27.9083 148.088 27.225C148.088 26.5417 147.955 25.9583 147.688 25.475C147.438 24.9917 147.097 24.625 146.663 24.375C146.247 24.125 145.772 24 145.238 24C144.705 24 144.222 24.125 143.788 24.375C143.372 24.625 143.03 24.9917 142.763 25.475C142.513 25.9583 142.388 26.5417 142.388 27.225C142.388 27.9083 142.513 28.4917 142.763 28.975C143.03 29.4583 143.372 29.825 143.788 30.075C144.222 30.325 144.705 30.45 145.238 30.45ZM162.196 34.225C160.596 34.225 159.196 33.925 157.996 33.325C156.813 32.7083 155.888 31.875 155.221 30.825C154.571 29.7583 154.246 28.55 154.246 27.2C154.246 25.85 154.563 24.65 155.196 23.6C155.846 22.5333 156.738 21.7083 157.871 21.125C159.005 20.525 160.28 20.225 161.696 20.225C163.03 20.225 164.246 20.5 165.346 21.05C166.446 21.5833 167.321 22.375 167.971 23.425C168.621 24.475 168.946 25.75 168.946 27.25C168.946 27.4167 168.938 27.6083 168.921 27.825C168.905 28.0417 168.888 28.2417 168.871 28.425H158.146V25.925H166.346L164.546 26.625C164.563 26.0083 164.446 25.475 164.196 25.025C163.963 24.575 163.63 24.225 163.196 23.975C162.78 23.725 162.288 23.6 161.721 23.6C161.155 23.6 160.655 23.725 160.221 23.975C159.805 24.225 159.48 24.5833 159.246 25.05C159.013 25.5 158.896 26.0333 158.896 26.65V27.375C158.896 28.0417 159.03 28.6167 159.296 29.1C159.58 29.5833 159.98 29.9583 160.496 30.225C161.013 30.475 161.63 30.6 162.346 30.6C163.013 30.6 163.58 30.5083 164.046 30.325C164.53 30.125 165.005 29.825 165.471 29.425L167.971 32.025C167.321 32.7417 166.521 33.2917 165.571 33.675C164.621 34.0417 163.496 34.225 162.196 34.225ZM171.136 34V20.45H175.661V24.4L174.986 23.275C175.386 22.2583 176.036 21.5 176.936 21C177.836 20.4833 178.928 20.225 180.211 20.225V24.5C179.995 24.4667 179.803 24.45 179.636 24.45C179.486 24.4333 179.32 24.425 179.136 24.425C178.17 24.425 177.386 24.6917 176.786 25.225C176.186 25.7417 175.886 26.5917 175.886 27.775V34H171.136ZM188.637 34.225C186.903 34.225 185.553 33.8 184.587 32.95C183.62 32.0833 183.137 30.7833 183.137 29.05V17.425H187.887V29C187.887 29.4833 188.02 29.8667 188.287 30.15C188.553 30.4167 188.895 30.55 189.312 30.55C189.878 30.55 190.362 30.4083 190.762 30.125L191.937 33.45C191.537 33.7167 191.045 33.9083 190.462 34.025C189.878 34.1583 189.27 34.225 188.637 34.225ZM181.162 24.5V20.95H190.987V24.5H181.162ZM200.178 34.225C198.694 34.225 197.378 33.925 196.228 33.325C195.078 32.725 194.169 31.9 193.503 30.85C192.853 29.7833 192.528 28.5667 192.528 27.2C192.528 25.8333 192.853 24.625 193.503 23.575C194.169 22.525 195.078 21.7083 196.228 21.125C197.378 20.525 198.694 20.225 200.178 20.225C201.661 20.225 202.978 20.525 204.128 21.125C205.294 21.7083 206.203 22.525 206.853 23.575C207.503 24.625 207.828 25.8333 207.828 27.2C207.828 28.5667 207.503 29.7833 206.853 30.85C206.203 31.9 205.294 32.725 204.128 33.325C202.978 33.925 201.661 34.225 200.178 34.225ZM200.178 30.45C200.728 30.45 201.211 30.325 201.628 30.075C202.061 29.825 202.403 29.4583 202.653 28.975C202.903 28.475 203.028 27.8833 203.028 27.2C203.028 26.5167 202.903 25.9417 202.653 25.475C202.403 24.9917 202.061 24.625 201.628 24.375C201.211 24.125 200.728 24 200.178 24C199.644 24 199.161 24.125 198.728 24.375C198.311 24.625 197.969 24.9917 197.703 25.475C197.453 25.9417 197.328 26.5167 197.328 27.2C197.328 27.8833 197.453 28.475 197.703 28.975C197.969 29.4583 198.311 29.825 198.728 30.075C199.161 30.325 199.644 30.45 200.178 30.45ZM214.953 34.225C213.803 34.225 212.678 34.0917 211.578 33.825C210.495 33.5583 209.62 33.225 208.953 32.825L210.378 29.575C211.011 29.9583 211.753 30.2667 212.603 30.5C213.453 30.7167 214.286 30.825 215.103 30.825C215.903 30.825 216.453 30.7417 216.753 30.575C217.07 30.4083 217.228 30.1833 217.228 29.9C217.228 29.6333 217.078 29.4417 216.778 29.325C216.495 29.1917 216.111 29.0917 215.628 29.025C215.161 28.9583 214.645 28.8833 214.078 28.8C213.511 28.7167 212.936 28.6083 212.353 28.475C211.786 28.325 211.261 28.1083 210.778 27.825C210.311 27.525 209.936 27.125 209.653 26.625C209.37 26.125 209.228 25.4917 209.228 24.725C209.228 23.8583 209.478 23.0917 209.978 22.425C210.495 21.7417 211.245 21.2083 212.228 20.825C213.211 20.425 214.411 20.225 215.828 20.225C216.778 20.225 217.736 20.325 218.703 20.525C219.686 20.7083 220.511 20.9917 221.178 21.375L219.753 24.6C219.086 24.2167 218.42 23.9583 217.753 23.825C217.086 23.675 216.453 23.6 215.853 23.6C215.053 23.6 214.486 23.6917 214.153 23.875C213.836 24.0583 213.678 24.2833 213.678 24.55C213.678 24.8167 213.82 25.025 214.103 25.175C214.386 25.3083 214.761 25.4167 215.228 25.5C215.711 25.5667 216.236 25.6417 216.803 25.725C217.37 25.7917 217.936 25.9 218.503 26.05C219.086 26.2 219.611 26.425 220.078 26.725C220.561 27.0083 220.945 27.4 221.228 27.9C221.511 28.3833 221.653 29.0083 221.653 29.775C221.653 30.6083 221.395 31.3583 220.878 32.025C220.378 32.6917 219.628 33.225 218.628 33.625C217.645 34.025 216.42 34.225 214.953 34.225Z" fill="#F5D03A"/>
<path d="M117.95 34L115.515 32.2471L112.093 37H117.95V34ZM125.6 23.375L128.6 23.3963L128.667 13.9814L123.165 21.6221L125.6 23.375ZM125.575 26.9L123.125 28.6314L128.509 36.2492L128.575 26.9213L125.575 26.9ZM118.225 16.5V13.5H112.431L115.775 18.2314L118.225 16.5ZM123.8 16.5L126.265 14.79L125.37 13.5H123.8V16.5ZM128.5 23.275L128.532 26.2748L134.191 26.2153L130.965 21.565L128.5 23.275ZM126.125 23.3L123.644 21.6128L120.415 26.3603L126.157 26.2998L126.125 23.3ZM130.75 16.5V13.5H129.162L128.269 14.8128L130.75 16.5ZM136.1 16.5L138.534 18.2539L141.959 13.5H136.1V16.5ZM128.75 26.7H125.75V35.9948L131.184 28.4539L128.75 26.7ZM128.75 23.2L131.187 21.451L125.75 13.8737V23.2H128.75ZM136.5 34V37H142.345L138.937 32.251L136.5 34ZM130.8 34L128.308 35.6701L129.199 37H130.8V34ZM126.025 26.875V23.875H120.403L123.533 28.5451L126.025 26.875ZM128.3 26.875L130.804 28.5269L133.873 23.875H128.3V26.875ZM123.6 34V37H125.215L126.104 35.6519L123.6 34ZM120.385 35.7529L128.035 25.1279L123.165 21.6221L115.515 32.2471L120.385 35.7529ZM122.6 23.3537L122.575 26.8787L128.575 26.9213L128.6 23.3963L122.6 23.3537ZM128.025 25.1686L120.675 14.7686L115.775 18.2314L123.125 28.6314L128.025 25.1686ZM118.225 19.5H123.8V13.5H118.225V19.5ZM121.335 18.21L126.035 24.985L130.965 21.565L126.265 14.79L121.335 18.21ZM128.468 20.2752L126.093 20.3002L126.157 26.2998L128.532 26.2748L128.468 20.2752ZM128.606 24.9872L133.231 18.1872L128.269 14.8128L123.644 21.6128L128.606 24.9872ZM130.75 19.5H136.1V13.5H130.75V19.5ZM133.666 14.7461L126.316 24.9461L131.184 28.4539L138.534 18.2539L133.666 14.7461ZM131.75 26.7V23.2H125.75V26.7H131.75ZM126.313 24.949L134.063 35.749L138.937 32.251L131.187 21.451L126.313 24.949ZM136.5 31H130.8V37H136.5V31ZM133.292 32.3299L128.517 25.2049L123.533 28.5451L128.308 35.6701L133.292 32.3299ZM126.025 29.875H128.3V23.875H126.025V29.875ZM125.796 25.2231L121.096 32.3481L126.104 35.6519L130.804 28.5269L125.796 25.2231ZM123.6 31H117.95V37H123.6V31ZM143.288 33.475L141.685 36.0102L141.703 36.022L141.722 36.0336L143.288 33.475ZM141.413 31.175L138.631 32.2969L138.642 32.3242L138.654 32.3513L141.413 31.175ZM141.388 23.275L144.18 24.3734L144.183 24.3657L144.186 24.358L141.388 23.275ZM143.188 20.975L141.622 18.4164L141.61 18.4237L141.598 18.431L143.188 20.975ZM149.588 21.1L148.077 23.6913L148.102 23.7061L148.128 23.7204L149.588 21.1ZM151.988 23.525L149.366 24.9819L149.38 25.0068L149.394 25.0314L151.988 23.525ZM151.988 30.95L149.384 29.4616L149.375 29.4773L149.366 29.4931L151.988 30.95ZM149.588 33.375L148.128 30.7546L148.119 30.7597L148.109 30.7649L149.588 33.375ZM137.713 38.85H134.713V41.85H137.713V38.85ZM137.713 20.45V17.45H134.713V20.45H137.713ZM142.238 20.45H145.238V17.45H142.238V20.45ZM142.238 22.75L145.238 22.7668L145.238 22.7584V22.75H142.238ZM142.213 27.225L139.214 27.2082L139.213 27.2999L139.218 27.3914L142.213 27.225ZM142.463 31.725H145.463V31.6417L145.459 31.5586L142.463 31.725ZM142.463 38.85V41.85H145.463V38.85H142.463ZM146.663 30.075L145.164 27.4764L145.142 27.4893L145.12 27.5025L146.663 30.075ZM147.688 28.975L145.062 27.5258L145.042 27.561L145.024 27.5967L147.688 28.975ZM147.688 25.475L145.024 26.8533L145.042 26.889L145.062 26.9242L147.688 25.475ZM146.663 24.375L145.12 26.9475L145.142 26.9607L145.164 26.9736L146.663 24.375ZM143.788 24.375L142.289 21.7764L142.267 21.7893L142.245 21.8025L143.788 24.375ZM142.763 25.475L140.137 24.0258L140.117 24.061L140.099 24.0967L142.763 25.475ZM142.763 28.975L140.099 30.3533L140.117 30.389L140.137 30.4242L142.763 28.975ZM143.788 30.075L142.245 32.6475L142.267 32.6607L142.289 32.6736L143.788 30.075ZM146.238 31.225C145.53 31.225 145.113 31.0745 144.855 30.9164L141.722 36.0336C143.097 36.8755 144.647 37.225 146.238 37.225V31.225ZM144.892 30.9398C144.661 30.7935 144.403 30.5387 144.173 29.9987L138.654 32.3513C139.29 33.8446 140.282 35.1231 141.685 36.0102L144.892 30.9398ZM144.196 30.0531C143.971 29.4958 143.788 28.5946 143.788 27.225H137.788C137.788 29.0554 138.023 30.7876 138.631 32.2969L144.196 30.0531ZM143.788 27.225C143.788 25.8206 143.967 24.9147 144.18 24.3734L138.597 22.1766C138.01 23.6686 137.788 25.3961 137.788 27.225H143.788ZM144.186 24.358C144.394 23.8201 144.62 23.618 144.778 23.519L141.598 18.431C140.157 19.332 139.183 20.6632 138.591 22.192L144.186 24.358ZM144.755 23.5336C144.988 23.3907 145.427 23.225 146.238 23.225V17.225C144.617 17.225 143.022 17.5593 141.622 18.4164L144.755 23.5336ZM146.238 23.225C146.977 23.225 147.566 23.3932 148.077 23.6913L151.1 18.5087C149.611 17.6401 147.967 17.225 146.238 17.225V23.225ZM148.128 23.7204C148.64 24.006 149.045 24.404 149.366 24.9819L154.611 22.0681C153.765 20.546 152.57 19.3273 151.049 18.4796L148.128 23.7204ZM149.394 25.0314C149.68 25.5236 149.888 26.215 149.888 27.225H155.888C155.888 25.3683 155.497 23.593 154.583 22.0186L149.394 25.0314ZM149.888 27.225C149.888 28.2333 149.68 28.9423 149.384 29.4616L154.593 32.4384C155.496 30.8577 155.888 29.0833 155.888 27.225H149.888ZM149.366 29.4931C149.045 30.071 148.64 30.469 148.128 30.7546L151.049 35.9954C152.57 35.1477 153.765 33.929 154.611 32.4069L149.366 29.4931ZM148.109 30.7649C147.593 31.0574 146.992 31.225 146.238 31.225V37.225C147.951 37.225 149.584 36.8259 151.068 35.9851L148.109 30.7649ZM140.713 38.85V20.45H134.713V38.85H140.713ZM137.713 23.45H142.238V17.45H137.713V23.45ZM139.238 20.45V22.75H145.238V20.45H139.238ZM139.239 22.7332L139.214 27.2082L145.213 27.2418L145.238 22.7668L139.239 22.7332ZM139.218 27.3914L139.468 31.8914L145.459 31.5586L145.209 27.0586L139.218 27.3914ZM139.463 31.725V38.85H145.463V31.725H139.463ZM142.463 35.85H137.713V41.85H142.463V35.85ZM145.238 33.45C146.261 33.45 147.279 33.2041 148.207 32.6475L145.12 27.5025C145.157 27.48 145.198 27.4639 145.231 27.455C145.263 27.4466 145.269 27.45 145.238 27.45V33.45ZM148.163 32.6736C149.137 32.1116 149.863 31.3 150.353 30.3533L145.024 27.5967C145.014 27.6164 145.019 27.6002 145.05 27.5673C145.082 27.5331 145.122 27.5006 145.164 27.4764L148.163 32.6736ZM150.315 30.4242C150.878 29.4034 151.088 28.2961 151.088 27.225H145.088C145.088 27.5205 145.032 27.5799 145.062 27.5258L150.315 30.4242ZM151.088 27.225C151.088 26.1539 150.878 25.0466 150.315 24.0258L145.062 26.9242C145.032 26.8701 145.088 26.9295 145.088 27.225H151.088ZM150.353 24.0967C149.863 23.15 149.137 22.3384 148.163 21.7764L145.164 26.9736C145.122 26.9494 145.082 26.9169 145.05 26.8827C145.019 26.8498 145.014 26.8336 145.024 26.8533L150.353 24.0967ZM148.207 21.8025C147.279 21.2459 146.261 21 145.238 21V27C145.269 27 145.263 27.0034 145.231 26.995C145.198 26.9861 145.157 26.97 145.12 26.9475L148.207 21.8025ZM145.238 21C144.215 21 143.209 21.246 142.289 21.7764L145.288 26.9736C145.28 26.9778 145.27 26.9828 145.259 26.9876C145.247 26.9923 145.236 26.9958 145.227 26.9982C145.218 27.0005 145.213 27.0011 145.214 27.001C145.215 27.0009 145.222 27 145.238 27V21ZM142.245 21.8025C141.315 22.3602 140.624 23.1432 140.137 24.0258L145.39 26.9242C145.416 26.8766 145.428 26.8687 145.415 26.8827C145.408 26.8894 145.398 26.8998 145.383 26.9119C145.368 26.9242 145.351 26.9363 145.332 26.9475L142.245 21.8025ZM140.099 24.0967C139.579 25.1012 139.388 26.182 139.388 27.225H145.388C145.388 26.9013 145.448 26.8155 145.428 26.8533L140.099 24.0967ZM139.388 27.225C139.388 28.268 139.579 29.3488 140.099 30.3533L145.428 27.5967C145.448 27.6345 145.388 27.5487 145.388 27.225H139.388ZM140.137 30.4242C140.624 31.3068 141.315 32.0898 142.245 32.6475L145.332 27.5025C145.351 27.5137 145.368 27.5258 145.383 27.5381C145.398 27.5502 145.408 27.5606 145.415 27.5673C145.428 27.5813 145.416 27.5734 145.39 27.5258L140.137 30.4242ZM142.289 32.6736C143.209 33.204 144.215 33.45 145.238 33.45V27.45C145.222 27.45 145.215 27.4491 145.214 27.449C145.213 27.4489 145.218 27.4495 145.227 27.4518C145.236 27.4542 145.247 27.4577 145.259 27.4624C145.27 27.4672 145.28 27.4722 145.288 27.4764L142.289 32.6736ZM157.996 33.325L156.61 35.9854L156.632 35.997L156.655 36.0083L157.996 33.325ZM155.221 30.825L152.659 32.3861L152.674 32.4097L152.689 32.433L155.221 30.825ZM155.196 23.6L152.634 22.0389L152.627 22.0505L155.196 23.6ZM157.871 21.125L159.244 23.7924L159.26 23.7845L159.275 23.7764L157.871 21.125ZM165.346 21.05L164.005 23.7333L164.021 23.7415L164.037 23.7494L165.346 21.05ZM167.971 23.425L170.522 21.8459L170.522 21.8459L167.971 23.425ZM168.921 27.825L171.912 28.0551L168.921 27.825ZM168.871 28.425V31.425H171.611L171.859 28.6966L168.871 28.425ZM158.146 28.425H155.146V31.425H158.146V28.425ZM158.146 25.925V22.925H155.146V25.925H158.146ZM166.346 25.925L167.434 28.721L166.346 22.925V25.925ZM164.546 26.625L161.547 26.5439L161.425 31.0575L165.634 29.421L164.546 26.625ZM164.196 25.025L161.533 26.406L161.553 26.4442L161.574 26.4819L164.196 25.025ZM163.196 23.975L161.653 26.5475L161.675 26.5607L161.697 26.5736L163.196 23.975ZM160.221 23.975L158.722 21.3764L158.7 21.3893L158.678 21.4025L160.221 23.975ZM159.246 25.05L161.91 26.431L161.92 26.4114L161.93 26.3916L159.246 25.05ZM159.296 29.1L156.67 30.5492L156.688 30.5834L156.708 30.6172L159.296 29.1ZM160.496 30.225L159.12 32.8909L159.155 32.9086L159.19 32.9255L160.496 30.225ZM164.046 30.325L165.143 33.1173L165.168 33.1074L165.193 33.097L164.046 30.325ZM165.471 29.425L167.634 27.3457L165.67 25.3034L163.519 27.1472L165.471 29.425ZM167.971 32.025L170.193 34.0404L172.076 31.9652L170.134 29.9457L167.971 32.025ZM165.571 33.675L166.652 36.4738L166.673 36.4656L166.694 36.4571L165.571 33.675ZM162.196 31.225C160.973 31.225 160.049 30.997 159.338 30.6417L156.655 36.0083C158.344 36.853 160.219 37.225 162.196 37.225V31.225ZM159.383 30.6646C158.632 30.2734 158.117 29.789 157.754 29.217L152.689 32.433C153.659 33.961 154.994 35.1433 156.61 35.9854L159.383 30.6646ZM157.783 29.2639C157.443 28.7054 157.246 28.0454 157.246 27.2H151.246C151.246 29.0546 151.7 30.8113 152.659 32.3861L157.783 29.2639ZM157.246 27.2C157.246 26.3393 157.442 25.6855 157.765 25.1495L152.627 22.0505C151.684 23.6145 151.246 25.3607 151.246 27.2H157.246ZM157.758 25.1611C158.115 24.5755 158.591 24.1287 159.244 23.7924L156.498 18.4576C154.885 19.2879 153.578 20.4911 152.634 22.0389L157.758 25.1611ZM159.275 23.7764C159.932 23.4285 160.717 23.225 161.696 23.225V17.225C159.843 17.225 158.077 17.6214 156.468 18.4736L159.275 23.7764ZM161.696 23.225C162.604 23.225 163.356 23.4087 164.005 23.7333L166.688 18.3667C165.137 17.5913 163.455 17.225 161.696 17.225V23.225ZM164.037 23.7494C164.62 24.0319 165.067 24.4325 165.42 25.0041L170.522 21.8459C169.576 20.3175 168.272 19.1347 166.655 18.3506L164.037 23.7494ZM165.42 25.0041C165.719 25.487 165.946 26.1877 165.946 27.25H171.946C171.946 25.3123 171.523 23.463 170.522 21.8459L165.42 25.0041ZM165.946 27.25C165.946 27.3209 165.943 27.4333 165.93 27.5949L171.912 28.0551C171.933 27.7834 171.946 27.5124 171.946 27.25H165.946ZM165.93 27.5949C165.914 27.8001 165.899 27.9861 165.884 28.1534L171.859 28.6966C171.877 28.4972 171.895 28.2832 171.912 28.0551L165.93 27.5949ZM168.871 25.425H158.146V31.425H168.871V25.425ZM161.146 28.425V25.925H155.146V28.425H161.146ZM158.146 28.925H166.346V22.925H158.146V28.925ZM165.259 23.129L163.459 23.829L165.634 29.421L167.434 28.721L165.259 23.129ZM167.545 26.7061C167.573 25.6592 167.377 24.5732 166.819 23.5681L161.574 26.4819C161.562 26.4606 161.553 26.4414 161.548 26.4263C161.542 26.4113 161.54 26.403 161.541 26.4036C161.541 26.4048 161.55 26.4474 161.547 26.5439L167.545 26.7061ZM166.86 23.644C166.366 22.6925 165.632 21.9168 164.695 21.3764L161.697 26.5736C161.674 26.5602 161.637 26.534 161.599 26.494C161.561 26.4542 161.54 26.42 161.533 26.406L166.86 23.644ZM164.74 21.4025C163.784 20.8291 162.74 20.6 161.721 20.6V26.6C161.784 26.6 161.798 26.6069 161.776 26.6013C161.765 26.5985 161.747 26.5932 161.725 26.5839C161.702 26.5746 161.678 26.5625 161.653 26.5475L164.74 21.4025ZM161.721 20.6C160.699 20.6 159.669 20.83 158.722 21.3764L161.72 26.5736C161.706 26.582 161.691 26.5891 161.677 26.5947C161.664 26.6001 161.654 26.603 161.649 26.6042C161.644 26.6053 161.647 26.6044 161.658 26.603C161.669 26.6017 161.69 26.6 161.721 26.6V20.6ZM158.678 21.4025C157.736 21.9679 157.032 22.7706 156.563 23.7084L161.93 26.3916C161.934 26.3838 161.922 26.4081 161.887 26.4467C161.851 26.4865 161.808 26.5218 161.765 26.5475L158.678 21.4025ZM156.583 23.669C156.086 24.6285 155.896 25.6555 155.896 26.65H161.896C161.896 26.4111 161.94 26.3715 161.91 26.431L156.583 23.669ZM155.896 26.65V27.375H161.896V26.65H155.896ZM155.896 27.375C155.896 28.4438 156.112 29.5386 156.67 30.5492L161.923 27.6508C161.932 27.6676 161.927 27.6651 161.919 27.6286C161.91 27.5897 161.896 27.5091 161.896 27.375H155.896ZM156.708 30.6172C157.29 31.6095 158.119 32.3741 159.12 32.8909L161.872 27.5591C161.858 27.5517 161.851 27.5472 161.851 27.547C161.851 27.5468 161.855 27.5495 161.861 27.5551C161.867 27.5608 161.873 27.5673 161.878 27.5737C161.883 27.58 161.885 27.5836 161.884 27.5828L156.708 30.6172ZM159.19 32.9255C160.202 33.4154 161.287 33.6 162.346 33.6V27.6C161.972 27.6 161.824 27.5346 161.803 27.5245L159.19 32.9255ZM162.346 33.6C163.272 33.6 164.233 33.4749 165.143 33.1173L162.949 27.5327C162.926 27.5417 162.754 27.6 162.346 27.6V33.6ZM165.193 33.097C166.016 32.7568 166.757 32.2738 167.424 31.7028L163.519 27.1472C163.252 27.3762 163.044 27.4932 162.899 27.5529L165.193 33.097ZM163.309 31.5043L165.809 34.1043L170.134 29.9457L167.634 27.3457L163.309 31.5043ZM165.749 30.0096C165.421 30.3714 165.004 30.6688 164.449 30.8929L166.694 36.4571C168.038 35.9146 169.222 35.1119 170.193 34.0404L165.749 30.0096ZM164.491 30.8762C163.966 31.0787 163.225 31.225 162.196 31.225V37.225C163.768 37.225 165.276 37.0046 166.652 36.4738L164.491 30.8762ZM171.136 34H168.136V37H171.136V34ZM171.136 20.45V17.45H168.136V20.45H171.136ZM175.661 20.45H178.661V17.45H175.661V20.45ZM175.661 24.4L173.089 25.9435L178.661 35.231V24.4H175.661ZM174.986 23.275L172.195 22.1766L171.654 23.5515L172.414 24.8185L174.986 23.275ZM176.936 21L178.393 23.6225L178.412 23.6122L178.43 23.6018L176.936 21ZM180.211 20.225H183.211V17.225H180.211V20.225ZM180.211 24.5L179.755 27.4651L183.211 27.9968V24.5H180.211ZM179.636 24.45L179.305 27.4317L179.47 27.45H179.636V24.45ZM176.786 25.225L178.744 27.4983L178.762 27.4829L178.779 27.4672L176.786 25.225ZM175.886 34V37H178.886V34H175.886ZM174.136 34V20.45H168.136V34H174.136ZM171.136 23.45H175.661V17.45H171.136V23.45ZM172.661 20.45V24.4H178.661V20.45H172.661ZM178.234 22.8565L177.559 21.7315L172.414 24.8185L173.089 25.9435L178.234 22.8565ZM177.778 24.3734C177.94 23.9614 178.14 23.7629 178.393 23.6225L175.479 18.3775C173.932 19.2371 172.833 20.5552 172.195 22.1766L177.778 24.3734ZM178.43 23.6018C178.78 23.4011 179.329 23.225 180.211 23.225V17.225C178.527 17.225 176.893 17.5656 175.443 18.3982L178.43 23.6018ZM177.211 20.225V24.5H183.211V20.225H177.211ZM180.667 21.5349C180.344 21.4851 179.995 21.45 179.636 21.45V27.45C179.621 27.45 179.623 27.4493 179.645 27.4512C179.667 27.4531 179.703 27.4571 179.755 27.4651L180.667 21.5349ZM179.968 21.4683C179.687 21.4372 179.408 21.425 179.136 21.425V27.425C179.232 27.425 179.285 27.4295 179.305 27.4317L179.968 21.4683ZM179.136 21.425C177.592 21.425 176.05 21.8659 174.793 22.9828L178.779 27.4672C178.78 27.4671 178.779 27.4679 178.777 27.4691C178.775 27.4704 178.774 27.4714 178.773 27.472C178.77 27.4737 178.774 27.4706 178.791 27.4649C178.824 27.4537 178.928 27.425 179.136 27.425V21.425ZM174.829 22.9517C173.295 24.2725 172.886 26.156 172.886 27.775H178.886C178.886 27.4231 178.933 27.2701 178.94 27.2485C178.942 27.2425 178.932 27.2732 178.898 27.325C178.863 27.3785 178.811 27.4401 178.744 27.4983L174.829 22.9517ZM172.886 27.775V34H178.886V27.775H172.886ZM175.886 31H171.136V37H175.886V31ZM184.587 32.95L182.584 35.1837L182.595 35.1934L182.606 35.2029L184.587 32.95ZM183.137 17.425V14.425H180.137V17.425H183.137ZM187.887 17.425H190.887V14.425H187.887V17.425ZM188.287 30.15L186.102 32.2061L186.133 32.2392L186.165 32.2713L188.287 30.15ZM190.762 30.125L193.59 29.1254L192.267 25.3821L189.027 27.6769L190.762 30.125ZM191.937 33.45L193.601 35.9462L195.543 34.6513L194.765 32.4504L191.937 33.45ZM190.462 34.025L189.873 31.0833L189.833 31.0913L189.793 31.1004L190.462 34.025ZM181.162 24.5H178.162V27.5H181.162V24.5ZM181.162 20.95V17.95H178.162V20.95H181.162ZM190.987 20.95H193.987V17.95H190.987V20.95ZM190.987 24.5V27.5H193.987V24.5H190.987ZM188.637 31.225C187.377 31.225 186.821 30.9202 186.568 30.6971L182.606 35.2029C184.285 36.6798 186.429 37.225 188.637 37.225V31.225ZM186.589 30.7163C186.451 30.5923 186.137 30.2311 186.137 29.05H180.137C180.137 31.3356 180.789 33.5744 182.584 35.1837L186.589 30.7163ZM186.137 29.05V17.425H180.137V29.05H186.137ZM183.137 20.425H187.887V14.425H183.137V20.425ZM184.887 17.425V29H190.887V17.425H184.887ZM184.887 29C184.887 30.0534 185.192 31.2394 186.102 32.2061L190.471 28.0939C190.639 28.2727 190.754 28.4752 190.82 28.6644C190.882 28.8436 190.887 28.9685 190.887 29H184.887ZM186.165 32.2713C187.056 33.1622 188.191 33.55 189.312 33.55V27.55C189.426 27.55 189.613 27.5691 189.833 27.6553C190.06 27.7437 190.256 27.8772 190.408 28.0287L186.165 32.2713ZM189.312 33.55C190.399 33.55 191.513 33.2693 192.496 32.5731L189.027 27.6769C189.106 27.6214 189.187 27.5848 189.255 27.5649C189.319 27.546 189.344 27.55 189.312 27.55V33.55ZM187.933 31.1246L189.108 34.4496L194.765 32.4504L193.59 29.1254L187.933 31.1246ZM190.272 30.9538C190.266 30.9582 190.161 31.0258 189.873 31.0833L191.05 36.9667C191.929 36.7909 192.807 36.4751 193.601 35.9462L190.272 30.9538ZM189.793 31.1004C189.441 31.1808 189.058 31.225 188.637 31.225V37.225C189.482 37.225 190.315 37.1359 191.13 36.9496L189.793 31.1004ZM184.162 24.5V20.95H178.162V24.5H184.162ZM181.162 23.95H190.987V17.95H181.162V23.95ZM187.987 20.95V24.5H193.987V20.95H187.987ZM190.987 21.5H181.162V27.5H190.987V21.5ZM196.228 33.325L197.615 30.6652L196.228 33.325ZM193.503 30.85L190.941 32.4111L190.955 32.4347L190.97 32.458L193.503 30.85ZM193.503 23.575L190.97 21.967L190.961 21.9814L190.952 21.9959L193.503 23.575ZM196.228 21.125L197.585 23.8005L197.6 23.7927L197.615 23.7848L196.228 21.125ZM204.128 21.125L202.74 23.7848L202.763 23.7967L202.786 23.8083L204.128 21.125ZM206.853 23.575L204.302 25.1541V25.1541L206.853 23.575ZM206.853 30.85L209.403 32.4291L209.409 32.4201L209.414 32.4111L206.853 30.85ZM204.128 33.325L202.755 30.6571L202.748 30.6612L202.74 30.6652L204.128 33.325ZM201.628 30.075L200.128 27.4764L200.106 27.4893L200.084 27.5025L201.628 30.075ZM202.653 28.975L205.317 30.3533L205.327 30.335L205.336 30.3166L202.653 28.975ZM202.653 25.475L199.988 26.8533L199.998 26.8725L200.008 26.8917L202.653 25.475ZM201.628 24.375L200.084 26.9475L200.106 26.9607L200.128 26.9736L201.628 24.375ZM198.728 24.375L197.228 21.7764L197.206 21.7893L197.184 21.8025L198.728 24.375ZM197.703 25.475L195.076 24.0258L195.067 24.042L195.058 24.0583L197.703 25.475ZM197.703 28.975L195.019 30.3166L195.046 30.371L195.076 30.4242L197.703 28.975ZM198.728 30.075L197.184 32.6475L197.206 32.6607L197.228 32.6736L198.728 30.075ZM200.178 31.225C199.108 31.225 198.279 31.0115 197.615 30.6652L194.84 35.9848C196.476 36.8385 198.281 37.225 200.178 37.225V31.225ZM197.615 30.6652C196.912 30.2982 196.407 29.8274 196.035 29.242L190.97 32.458C191.932 33.9726 193.243 35.1518 194.84 35.9848L197.615 30.6652ZM196.064 29.2889C195.728 28.7363 195.528 28.0695 195.528 27.2H189.528C189.528 29.0638 189.977 30.8304 190.941 32.4111L196.064 29.2889ZM195.528 27.2C195.528 26.3298 195.728 25.6801 196.053 25.1541L190.952 21.9959C189.977 23.5699 189.528 25.3369 189.528 27.2H195.528ZM196.035 25.183C196.402 24.6052 196.897 24.1494 197.585 23.8005L194.87 18.4495C193.258 19.2673 191.936 20.4448 190.97 21.967L196.035 25.183ZM197.615 23.7848C198.279 23.4385 199.108 23.225 200.178 23.225V17.225C198.281 17.225 196.476 17.6115 194.84 18.4652L197.615 23.7848ZM200.178 23.225C201.248 23.225 202.076 23.4385 202.74 23.7848L205.515 18.4652C203.879 17.6115 202.074 17.225 200.178 17.225V23.225ZM202.786 23.8083C203.484 24.1574 203.961 24.6042 204.302 25.1541L209.403 21.9959C208.444 20.4458 207.104 19.2592 205.469 18.4417L202.786 23.8083ZM204.302 25.1541C204.627 25.6801 204.828 26.3298 204.828 27.2H210.828C210.828 25.3369 210.378 23.5699 209.403 21.9959L204.302 25.1541ZM204.828 27.2C204.828 28.0695 204.627 28.7363 204.291 29.2889L209.414 32.4111C210.378 30.8304 210.828 29.0638 210.828 27.2H204.828ZM204.302 29.2709C203.957 29.8285 203.469 30.2901 202.755 30.6571L205.5 35.9929C207.119 35.1599 208.449 33.9715 209.403 32.4291L204.302 29.2709ZM202.74 30.6652C202.076 31.0115 201.248 31.225 200.178 31.225V37.225C202.074 37.225 203.879 36.8385 205.515 35.9848L202.74 30.6652ZM200.178 33.45C201.198 33.45 202.229 33.2127 203.171 32.6475L200.084 27.5025C200.105 27.4898 200.127 27.4788 200.149 27.4698C200.17 27.4609 200.188 27.4552 200.201 27.4518C200.229 27.4448 200.225 27.45 200.178 27.45V33.45ZM203.127 32.6736C204.101 32.1116 204.828 31.3 205.317 30.3533L199.988 27.5967C199.978 27.6164 199.983 27.6002 200.014 27.5673C200.046 27.5331 200.086 27.5006 200.128 27.4764L203.127 32.6736ZM205.336 30.3166C205.835 29.3176 206.028 28.2472 206.028 27.2H200.028C200.028 27.5195 199.97 27.6324 199.969 27.6334L205.336 30.3166ZM206.028 27.2C206.028 26.162 205.838 25.0691 205.297 24.0583L200.008 26.8917C199.967 26.8142 200.028 26.8713 200.028 27.2H206.028ZM205.317 24.0967C204.828 23.15 204.101 22.3384 203.127 21.7764L200.128 26.9736C200.086 26.9494 200.046 26.9169 200.014 26.8827C199.983 26.8498 199.978 26.8336 199.988 26.8533L205.317 24.0967ZM203.171 21.8025C202.229 21.2373 201.198 21 200.178 21V27C200.225 27 200.229 27.0052 200.201 26.9982C200.188 26.9948 200.17 26.9891 200.149 26.9802C200.127 26.9712 200.105 26.9602 200.084 26.9475L203.171 21.8025ZM200.178 21C199.154 21 198.148 21.246 197.228 21.7764L200.227 26.9736C200.219 26.9778 200.209 26.9828 200.198 26.9876C200.186 26.9923 200.175 26.9958 200.166 26.9982C200.157 27.0005 200.152 27.0011 200.153 27.001C200.154 27.0009 200.162 27 200.178 27V21ZM197.184 21.8025C196.255 22.3602 195.563 23.1432 195.076 24.0258L200.329 26.9242C200.356 26.8766 200.367 26.8687 200.354 26.8827C200.347 26.8894 200.337 26.8998 200.322 26.9119C200.307 26.9242 200.29 26.9363 200.271 26.9475L197.184 21.8025ZM195.058 24.0583C194.517 25.0691 194.328 26.162 194.328 27.2H200.328C200.328 26.8713 200.388 26.8142 200.347 26.8917L195.058 24.0583ZM194.328 27.2C194.328 28.2472 194.52 29.3176 195.019 30.3166L200.386 27.6334C200.385 27.6324 200.328 27.5195 200.328 27.2H194.328ZM195.076 30.4242C195.563 31.3068 196.255 32.0898 197.184 32.6475L200.271 27.5025C200.29 27.5137 200.307 27.5258 200.322 27.5381C200.337 27.5502 200.347 27.5606 200.354 27.5673C200.367 27.5813 200.356 27.5734 200.329 27.5258L195.076 30.4242ZM197.228 32.6736C198.148 33.204 199.154 33.45 200.178 33.45V27.45C200.162 27.45 200.154 27.4491 200.153 27.449C200.152 27.4489 200.157 27.4495 200.166 27.4518C200.175 27.4542 200.186 27.4577 200.198 27.4624C200.209 27.4672 200.219 27.4722 200.227 27.4764L197.228 32.6736ZM211.578 33.825L210.861 36.7381L210.871 36.7406L211.578 33.825ZM208.953 32.825L206.205 31.6203L205.145 34.0388L207.409 35.3975L208.953 32.825ZM210.378 29.575L211.931 27.0085L209.004 25.2369L207.63 28.3703L210.378 29.575ZM212.603 30.5L211.809 33.393L211.835 33.4003L211.862 33.407L212.603 30.5ZM216.753 30.575L215.356 27.9202L215.326 27.936L215.296 27.9525L216.753 30.575ZM216.778 29.325L215.501 32.0395L215.594 32.0835L215.691 32.121L216.778 29.325ZM215.628 29.025L215.204 31.9948L215.211 31.9959L215.218 31.9969L215.628 29.025ZM214.078 28.8L213.641 31.7681L214.078 28.8ZM212.353 28.475L211.585 31.3751L211.635 31.3882L211.684 31.3996L212.353 28.475ZM210.778 27.825L209.156 30.3485L209.208 30.3819L209.261 30.4131L210.778 27.825ZM209.653 26.625L212.263 25.146L209.653 26.625ZM209.978 22.425L207.585 20.6157L207.578 20.625L209.978 22.425ZM212.228 20.825L213.318 23.6201L213.338 23.6122L213.358 23.6039L212.228 20.825ZM218.703 20.525L218.095 23.4628L218.124 23.4688L218.153 23.4742L218.703 20.525ZM221.178 21.375L223.922 22.5875L225.013 20.1193L222.673 18.7743L221.178 21.375ZM219.753 24.6L218.258 27.2007L221.149 28.8633L222.497 25.8125L219.753 24.6ZM217.753 23.825L217.094 26.7518L217.129 26.7597L217.165 26.7667L217.753 23.825ZM214.153 23.875L212.707 21.2464L212.678 21.2622L212.65 21.2787L214.153 23.875ZM214.103 25.175L212.699 27.8264L212.762 27.8594L212.826 27.8895L214.103 25.175ZM215.228 25.5L214.701 28.4533L214.759 28.4637L214.818 28.4719L215.228 25.5ZM216.803 25.725L216.366 28.6931L216.409 28.6994L216.452 28.7045L216.803 25.725ZM218.503 26.05L217.735 28.9501L217.746 28.9528L217.756 28.9555L218.503 26.05ZM220.078 26.725L218.456 29.2485L218.508 29.2819L218.561 29.3131L220.078 26.725ZM221.228 27.9L218.618 29.379L218.629 29.3982L218.64 29.4172L221.228 27.9ZM220.878 32.025L218.507 30.1873L218.492 30.206L218.478 30.225L220.878 32.025ZM218.628 33.625L217.514 30.8396L217.506 30.8428L217.498 30.8461L218.628 33.625ZM214.953 31.225C214.037 31.225 213.15 31.1191 212.285 30.9095L210.871 36.7406C212.206 37.0642 213.569 37.225 214.953 37.225V31.225ZM212.295 30.912C211.387 30.6886 210.821 30.4474 210.496 30.2525L207.409 35.3975C208.418 36.0026 209.602 36.4281 210.861 36.738L212.295 30.912ZM211.7 34.0297L213.125 30.7797L207.63 28.3703L206.205 31.6203L211.7 34.0297ZM208.825 32.1415C209.735 32.6924 210.741 33.0999 211.809 33.393L213.397 27.607C212.765 27.4335 212.288 27.2243 211.931 27.0085L208.825 32.1415ZM211.862 33.407C212.936 33.6809 214.019 33.825 215.103 33.825V27.825C214.554 27.825 213.97 27.7524 213.344 27.593L211.862 33.407ZM215.103 33.825C215.594 33.825 216.092 33.8003 216.565 33.7286C217.002 33.6625 217.614 33.5288 218.21 33.1975L215.296 27.9525C215.461 27.8609 215.586 27.8204 215.635 27.8063C215.686 27.791 215.702 27.791 215.666 27.7964C215.633 27.8014 215.57 27.809 215.471 27.8151C215.374 27.8211 215.252 27.825 215.103 27.825V33.825ZM218.15 33.2298C219.146 32.7055 220.228 31.6052 220.228 29.9H214.228C214.228 29.4433 214.368 28.9636 214.656 28.5548C214.92 28.1795 215.216 27.994 215.356 27.9202L218.15 33.2298ZM220.228 29.9C220.228 29.1646 220.006 28.3822 219.478 27.7073C218.98 27.0711 218.36 26.7215 217.865 26.529L215.691 32.121C215.496 32.0452 215.101 31.8497 214.753 31.4052C214.375 30.922 214.228 30.3688 214.228 29.9H220.228ZM218.055 26.6105C217.389 26.297 216.674 26.1409 216.038 26.0531L215.218 31.9969C215.368 32.0176 215.466 32.0386 215.521 32.0529C215.578 32.0678 215.563 32.0689 215.501 32.0395L218.055 26.6105ZM216.052 26.0552C215.59 25.9892 215.078 25.9148 214.514 25.8319L213.641 31.7681C214.211 31.8519 214.732 31.9275 215.204 31.9948L216.052 26.0552ZM214.514 25.8319C214.029 25.7605 213.531 25.667 213.021 25.5504L211.684 31.3996C212.341 31.5497 212.994 31.6728 213.641 31.7681L214.514 25.8319ZM213.121 25.5749C212.805 25.4912 212.533 25.3765 212.295 25.2369L209.261 30.4131C209.989 30.8401 210.768 31.1588 211.585 31.3751L213.121 25.5749ZM212.4 25.3015C212.358 25.274 212.316 25.2386 212.263 25.146L207.043 28.104C207.557 29.0114 208.265 29.776 209.156 30.3485L212.4 25.3015ZM212.263 25.146C212.307 25.223 212.228 25.1404 212.228 24.725H206.228C206.228 25.843 206.433 27.027 207.043 28.104L212.263 25.146ZM212.228 24.725C212.228 24.4796 212.284 24.3505 212.378 24.225L207.578 20.625C206.672 21.8328 206.228 23.2371 206.228 24.725H212.228ZM212.371 24.2343C212.483 24.0863 212.732 23.8485 213.318 23.6201L211.138 18.0299C209.757 18.5682 208.506 19.397 207.585 20.6157L212.371 24.2343ZM213.358 23.6039C213.884 23.3899 214.676 23.225 215.828 23.225V17.225C214.146 17.225 212.538 17.4601 211.098 18.0461L213.358 23.6039ZM215.828 23.225C216.566 23.225 217.321 23.3025 218.095 23.4628L219.311 17.5872C218.152 17.3475 216.99 17.225 215.828 17.225V23.225ZM218.153 23.4742C218.898 23.6131 219.382 23.8031 219.683 23.9757L222.673 18.7743C221.64 18.1802 220.474 17.8035 219.253 17.5758L218.153 23.4742ZM218.434 20.1625L217.009 23.3875L222.497 25.8125L223.922 22.5875L218.434 20.1625ZM221.248 21.9993C220.336 21.4748 219.366 21.0881 218.341 20.8833L217.165 26.7667C217.474 26.8286 217.836 26.9585 218.258 27.2007L221.248 21.9993ZM218.411 20.8982C217.558 20.7061 216.703 20.6 215.853 20.6V26.6C216.203 26.6 216.615 26.6439 217.094 26.7518L218.411 20.8982ZM215.853 20.6C214.99 20.6 213.754 20.6705 212.707 21.2464L215.599 26.5036C215.465 26.5774 215.364 26.6113 215.323 26.6237C215.281 26.6367 215.272 26.636 215.307 26.6303C215.341 26.6248 215.403 26.6168 215.497 26.6105C215.591 26.6042 215.709 26.6 215.853 26.6V20.6ZM212.65 21.2787C211.795 21.7737 210.678 22.8294 210.678 24.55H216.678C216.678 25.0553 216.515 25.5319 216.25 25.9077C216.011 26.2474 215.756 26.4136 215.656 26.4713L212.65 21.2787ZM210.678 24.55C210.678 26.1738 211.672 27.2826 212.699 27.8264L215.507 22.5236C215.682 22.6167 215.996 22.8237 216.265 23.2193C216.553 23.6425 216.678 24.1188 216.678 24.55H210.678ZM212.826 27.8895C213.436 28.1767 214.093 28.3448 214.701 28.4533L215.755 22.5467C215.604 22.5197 215.498 22.4939 215.429 22.4741C215.359 22.4537 215.348 22.4456 215.38 22.4605L212.826 27.8895ZM214.818 28.4719C215.291 28.5371 215.807 28.6108 216.366 28.6931L217.239 22.7569C216.665 22.6725 216.131 22.5962 215.638 22.5281L214.818 28.4719ZM216.452 28.7045C216.875 28.7541 217.302 28.8354 217.735 28.9501L219.271 23.1499C218.571 22.9646 217.865 22.8292 217.153 22.7455L216.452 28.7045ZM217.756 28.9555C218.055 29.0325 218.281 29.136 218.456 29.2485L221.7 24.2015C220.942 23.714 220.117 23.3675 219.25 23.1445L217.756 28.9555ZM218.561 29.3131C218.57 29.3187 218.576 29.3227 218.578 29.3246C218.581 29.3266 218.582 29.3281 218.584 29.3296C218.585 29.3312 218.598 29.3438 218.618 29.379L223.838 26.421C223.301 25.4739 222.546 24.6944 221.595 24.1369L218.561 29.3131ZM218.64 29.4172C218.605 29.3581 218.609 29.3398 218.621 29.3944C218.634 29.4518 218.653 29.5727 218.653 29.775H224.653C224.653 28.6635 224.451 27.4654 223.816 26.3828L218.64 29.4172ZM218.653 29.775C218.653 29.9343 218.621 30.0396 218.507 30.1873L223.249 33.8627C224.168 32.6771 224.653 31.2824 224.653 29.775H218.653ZM218.478 30.225C218.391 30.3403 218.15 30.5852 217.514 30.8396L219.742 36.4104C221.106 35.8648 222.364 35.0431 223.278 33.825L218.478 30.225ZM217.498 30.8461C216.982 31.0558 216.17 31.225 214.953 31.225V37.225C216.669 37.225 218.307 36.9942 219.758 36.4039L217.498 30.8461Z" fill="#FB6800" mask="url(#path-3-outside-2_574_7)"/>
</svg>
